<svg width="131" height="64" viewBox="0 0 131 64" fill="none" xmlns="http://www.w3.org/2000/svg">
<circle cx="28" cy="31" r="26" fill="#F2F2F2" stroke="#4077F1" stroke-width="4"/>
<path d="M43 42L61 57" stroke="#4077F1" stroke-width="4" stroke-linecap="round"/>
<path d="M43 42L61 57" stroke="#4077F1" stroke-width="4" stroke-linecap="round"/>
<path d="M8 31.5714H14.087L19.3043 20L25.3913 44L30.6087 26.4286L36.6957 37.1429L39.3043 29H48" stroke="#0B348E" stroke-width="2" stroke-linecap="round"/>
<path d="M8 31.5714H14.087L19.3043 20L25.3913 44L30.6087 26.4286L36.6957 37.1429L39.3043 29H48" stroke="#07235F" stroke-width="2" stroke-linecap="round"/>
<g filter="url(#filter0_d_210_110)">
<mask id="path-4-outside-1_210_110" maskUnits="userSpaceOnUse" x="62" y="6" width="65" height="27" fill="black">
<rect fill="white" x="62" y="6" width="65" height="27"/>
<path d="M63.8182 7.72727H67.1818L75.0909 27.0455H75.3636L83.2727 7.72727H86.6364V31H84V13.3182H83.7727L76.5 31H73.9545L66.6818 13.3182H66.4545V31H63.8182V7.72727ZM99.2415 31.3636C97.5597 31.3636 96.1089 30.9924 94.8892 30.25C93.6771 29.5 92.7415 28.4545 92.0824 27.1136C91.4309 25.7652 91.1051 24.197 91.1051 22.4091C91.1051 20.6212 91.4309 19.0455 92.0824 17.6818C92.7415 16.3106 93.6581 15.2424 94.8324 14.4773C96.0142 13.7045 97.393 13.3182 98.9688 13.3182C99.8778 13.3182 100.776 13.4697 101.662 13.7727C102.548 14.0758 103.355 14.5682 104.082 15.25C104.81 15.9242 105.389 16.8182 105.821 17.9318C106.253 19.0455 106.469 20.4167 106.469 22.0455V23.1818H93.0142V20.8636H103.741C103.741 19.8788 103.545 19 103.151 18.2273C102.764 17.4545 102.211 16.8447 101.491 16.3977C100.779 15.9508 99.9384 15.7273 98.9688 15.7273C97.9006 15.7273 96.9763 15.9924 96.196 16.5227C95.4233 17.0455 94.8286 17.7273 94.4119 18.5682C93.9953 19.4091 93.7869 20.3106 93.7869 21.2727V22.8182C93.7869 24.1364 94.0142 25.2538 94.4688 26.1705C94.9309 27.0795 95.571 27.7727 96.3892 28.25C97.2074 28.7197 98.1581 28.9545 99.2415 28.9545C99.946 28.9545 100.582 28.8561 101.151 28.6591C101.726 28.4545 102.223 28.1515 102.639 27.75C103.056 27.3409 103.378 26.8333 103.605 26.2273L106.196 26.9545C105.923 27.8333 105.465 28.6061 104.821 29.2727C104.177 29.9318 103.382 30.447 102.435 30.8182C101.488 31.1818 100.423 31.3636 99.2415 31.3636ZM117.139 31.3636C115.685 31.3636 114.401 30.9962 113.287 30.2614C112.173 29.5189 111.302 28.4735 110.673 27.125C110.045 25.7689 109.73 24.1667 109.73 22.3182C109.73 20.4848 110.045 18.8939 110.673 17.5455C111.302 16.197 112.177 15.1553 113.298 14.4205C114.42 13.6856 115.715 13.3182 117.185 13.3182C118.321 13.3182 119.219 13.5076 119.878 13.8864C120.545 14.2576 121.052 14.6818 121.401 15.1591C121.757 15.6288 122.033 16.0152 122.23 16.3182H122.457V7.72727H125.139V31H122.548V28.3182H122.23C122.033 28.6364 121.753 29.0379 121.389 29.5227C121.026 30 120.507 30.428 119.832 30.8068C119.158 31.178 118.26 31.3636 117.139 31.3636ZM117.503 28.9545C118.579 28.9545 119.488 28.6742 120.23 28.1136C120.973 27.5455 121.537 26.7614 121.923 25.7614C122.31 24.7538 122.503 23.5909 122.503 22.2727C122.503 20.9697 122.313 19.8295 121.935 18.8523C121.556 17.8674 120.995 17.1023 120.253 16.5568C119.51 16.0038 118.594 15.7273 117.503 15.7273C116.366 15.7273 115.42 16.0189 114.662 16.6023C113.912 17.178 113.348 17.9621 112.969 18.9545C112.598 19.9394 112.412 21.0455 112.412 22.2727C112.412 23.5152 112.601 24.6439 112.98 25.6591C113.366 26.6667 113.935 27.4697 114.685 28.0682C115.442 28.6591 116.382 28.9545 117.503 28.9545Z"/>
</mask>
<path d="M63.8182 7.72727H67.1818L75.0909 27.0455H75.3636L83.2727 7.72727H86.6364V31H84V13.3182H83.7727L76.5 31H73.9545L66.6818 13.3182H66.4545V31H63.8182V7.72727ZM99.2415 31.3636C97.5597 31.3636 96.1089 30.9924 94.8892 30.25C93.6771 29.5 92.7415 28.4545 92.0824 27.1136C91.4309 25.7652 91.1051 24.197 91.1051 22.4091C91.1051 20.6212 91.4309 19.0455 92.0824 17.6818C92.7415 16.3106 93.6581 15.2424 94.8324 14.4773C96.0142 13.7045 97.393 13.3182 98.9688 13.3182C99.8778 13.3182 100.776 13.4697 101.662 13.7727C102.548 14.0758 103.355 14.5682 104.082 15.25C104.81 15.9242 105.389 16.8182 105.821 17.9318C106.253 19.0455 106.469 20.4167 106.469 22.0455V23.1818H93.0142V20.8636H103.741C103.741 19.8788 103.545 19 103.151 18.2273C102.764 17.4545 102.211 16.8447 101.491 16.3977C100.779 15.9508 99.9384 15.7273 98.9688 15.7273C97.9006 15.7273 96.9763 15.9924 96.196 16.5227C95.4233 17.0455 94.8286 17.7273 94.4119 18.5682C93.9953 19.4091 93.7869 20.3106 93.7869 21.2727V22.8182C93.7869 24.1364 94.0142 25.2538 94.4688 26.1705C94.9309 27.0795 95.571 27.7727 96.3892 28.25C97.2074 28.7197 98.1581 28.9545 99.2415 28.9545C99.946 28.9545 100.582 28.8561 101.151 28.6591C101.726 28.4545 102.223 28.1515 102.639 27.75C103.056 27.3409 103.378 26.8333 103.605 26.2273L106.196 26.9545C105.923 27.8333 105.465 28.6061 104.821 29.2727C104.177 29.9318 103.382 30.447 102.435 30.8182C101.488 31.1818 100.423 31.3636 99.2415 31.3636ZM117.139 31.3636C115.685 31.3636 114.401 30.9962 113.287 30.2614C112.173 29.5189 111.302 28.4735 110.673 27.125C110.045 25.7689 109.73 24.1667 109.73 22.3182C109.73 20.4848 110.045 18.8939 110.673 17.5455C111.302 16.197 112.177 15.1553 113.298 14.4205C114.42 13.6856 115.715 13.3182 117.185 13.3182C118.321 13.3182 119.219 13.5076 119.878 13.8864C120.545 14.2576 121.052 14.6818 121.401 15.1591C121.757 15.6288 122.033 16.0152 122.23 16.3182H122.457V7.72727H125.139V31H122.548V28.3182H122.23C122.033 28.6364 121.753 29.0379 121.389 29.5227C121.026 30 120.507 30.428 119.832 30.8068C119.158 31.178 118.26 31.3636 117.139 31.3636ZM117.503 28.9545C118.579 28.9545 119.488 28.6742 120.23 28.1136C120.973 27.5455 121.537 26.7614 121.923 25.7614C122.31 24.7538 122.503 23.5909 122.503 22.2727C122.503 20.9697 122.313 19.8295 121.935 18.8523C121.556 17.8674 120.995 17.1023 120.253 16.5568C119.51 16.0038 118.594 15.7273 117.503 15.7273C116.366 15.7273 115.42 16.0189 114.662 16.6023C113.912 17.178 113.348 17.9621 112.969 18.9545C112.598 19.9394 112.412 21.0455 112.412 22.2727C112.412 23.5152 112.601 24.6439 112.98 25.6591C113.366 26.6667 113.935 27.4697 114.685 28.0682C115.442 28.6591 116.382 28.9545 117.503 28.9545Z" fill="#07235F"/>
<path d="M63.8182 7.72727V6.72727H62.8182V7.72727H63.8182ZM67.1818 7.72727L68.1073 7.34838L67.853 6.72727H67.1818V7.72727ZM75.0909 27.0455L74.1655 27.4243L74.4198 28.0455H75.0909V27.0455ZM75.3636 27.0455V28.0455H76.0348L76.2891 27.4243L75.3636 27.0455ZM83.2727 7.72727V6.72727H82.6016L82.3473 7.34838L83.2727 7.72727ZM86.6364 7.72727H87.6364V6.72727H86.6364V7.72727ZM86.6364 31V32H87.6364V31H86.6364ZM84 31H83V32H84V31ZM84 13.3182H85V12.3182H84V13.3182ZM83.7727 13.3182V12.3182H83.1028L82.8479 12.9378L83.7727 13.3182ZM76.5 31V32H77.17L77.4248 31.3804L76.5 31ZM73.9545 31L73.0297 31.3804L73.2846 32H73.9545V31ZM66.6818 13.3182L67.6066 12.9378L67.3518 12.3182H66.6818V13.3182ZM66.4545 13.3182V12.3182H65.4545V13.3182H66.4545ZM66.4545 31V32H67.4545V31H66.4545ZM63.8182 31H62.8182V32H63.8182V31ZM63.8182 7.72727V8.72727H67.1818V7.72727V6.72727H63.8182V7.72727ZM67.1818 7.72727L66.2564 8.10616L74.1655 27.4243L75.0909 27.0455L76.0164 26.6666L68.1073 7.34838L67.1818 7.72727ZM75.0909 27.0455V28.0455H75.3636V27.0455V26.0455H75.0909V27.0455ZM75.3636 27.0455L76.2891 27.4243L84.1982 8.10616L83.2727 7.72727L82.3473 7.34838L74.4382 26.6666L75.3636 27.0455ZM83.2727 7.72727V8.72727H86.6364V7.72727V6.72727H83.2727V7.72727ZM86.6364 7.72727H85.6364V31H86.6364H87.6364V7.72727H86.6364ZM86.6364 31V30H84V31V32H86.6364V31ZM84 31H85V13.3182H84H83V31H84ZM84 13.3182V12.3182H83.7727V13.3182V14.3182H84V13.3182ZM83.7727 13.3182L82.8479 12.9378L75.5752 30.6196L76.5 31L77.4248 31.3804L84.6976 13.6986L83.7727 13.3182ZM76.5 31V30H73.9545V31V32H76.5V31ZM73.9545 31L74.8794 30.6196L67.6066 12.9378L66.6818 13.3182L65.757 13.6986L73.0297 31.3804L73.9545 31ZM66.6818 13.3182V12.3182H66.4545V13.3182V14.3182H66.6818V13.3182ZM66.4545 13.3182H65.4545V31H66.4545H67.4545V13.3182H66.4545ZM66.4545 31V30H63.8182V31V32H66.4545V31ZM63.8182 31H64.8182V7.72727H63.8182H62.8182V31H63.8182ZM94.8892 30.25L94.363 31.1004L94.3693 31.1042L94.8892 30.25ZM92.0824 27.1136L91.182 27.5487L91.1849 27.5548L92.0824 27.1136ZM92.0824 17.6818L91.1811 17.2486L91.1801 17.2507L92.0824 17.6818ZM94.8324 14.4773L95.3783 15.3151L95.3796 15.3142L94.8324 14.4773ZM101.662 13.7727L101.985 12.8265V12.8265L101.662 13.7727ZM104.082 15.25L103.398 15.9795L103.403 15.9833L104.082 15.25ZM105.821 17.9318L106.753 17.5703V17.5703L105.821 17.9318ZM106.469 23.1818V24.1818H107.469V23.1818H106.469ZM93.0142 23.1818H92.0142V24.1818H93.0142V23.1818ZM93.0142 20.8636V19.8636H92.0142V20.8636H93.0142ZM103.741 20.8636V21.8636H104.741V20.8636H103.741ZM103.151 18.2273L102.256 18.6745L102.26 18.6815L103.151 18.2273ZM101.491 16.3977L100.96 17.2447L100.964 17.2472L101.491 16.3977ZM96.196 16.5227L96.7563 17.351L96.7581 17.3498L96.196 16.5227ZM94.4119 18.5682L93.5159 18.1242V18.1242L94.4119 18.5682ZM94.4688 26.1705L93.5728 26.6147L93.5773 26.6236L94.4688 26.1705ZM96.3892 28.25L95.8853 29.1138L95.8913 29.1173L96.3892 28.25ZM101.151 28.6591L101.478 29.604L101.485 29.6014L101.151 28.6591ZM102.639 27.75L103.333 28.4701L103.34 28.4636L102.639 27.75ZM103.605 26.2273L103.875 25.2645L102.991 25.0163L102.669 25.8761L103.605 26.2273ZM106.196 26.9545L107.151 27.2509L107.456 26.2695L106.466 25.9918L106.196 26.9545ZM104.821 29.2727L105.536 29.9716L105.54 29.9675L104.821 29.2727ZM102.435 30.8182L102.793 31.7517L102.8 31.7492L102.435 30.8182ZM99.2415 31.3636V30.3636C97.7101 30.3636 96.4462 30.0271 95.4092 29.3958L94.8892 30.25L94.3693 31.1042C95.7716 31.9578 97.4092 32.3636 99.2415 32.3636V31.3636ZM94.8892 30.25L95.4154 29.3996C94.3709 28.7533 93.5603 27.8534 92.9798 26.6725L92.0824 27.1136L91.1849 27.5548C91.9227 29.0557 92.9833 30.2467 94.363 31.1004L94.8892 30.25ZM92.0824 27.1136L92.9828 26.6786C92.4083 25.4896 92.1051 24.0752 92.1051 22.4091H91.1051H90.1051C90.1051 24.3188 90.4534 26.0407 91.182 27.5487L92.0824 27.1136ZM91.1051 22.4091H92.1051C92.1051 20.7433 92.4082 19.3195 92.9847 18.1129L92.0824 17.6818L91.1801 17.2507C90.4535 18.7714 90.1051 20.4991 90.1051 22.4091H91.1051ZM92.0824 17.6818L92.9837 18.115C93.5706 16.8941 94.3703 15.9719 95.3783 15.3151L94.8324 14.4773L94.2864 13.6394C92.946 14.5129 91.9124 15.7272 91.1811 17.2486L92.0824 17.6818ZM94.8324 14.4773L95.3796 15.3142C96.3803 14.66 97.564 14.3182 98.9688 14.3182V13.3182V12.3182C97.2219 12.3182 95.6481 12.7491 94.2851 13.6403L94.8324 14.4773ZM98.9688 13.3182V14.3182C99.7644 14.3182 100.553 14.4504 101.338 14.719L101.662 13.7727L101.985 12.8265C100.998 12.489 99.9912 12.3182 98.9688 12.3182V13.3182ZM101.662 13.7727L101.338 14.719C102.082 14.9732 102.768 15.3883 103.398 15.9795L104.082 15.25L104.766 14.5205C103.942 13.748 103.014 13.1783 101.985 12.8265L101.662 13.7727ZM104.082 15.25L103.403 15.9833C103.998 16.5354 104.501 17.2927 104.889 18.2933L105.821 17.9318L106.753 17.5703C106.278 16.3437 105.621 15.313 104.762 14.5167L104.082 15.25ZM105.821 17.9318L104.889 18.2933C105.263 19.2581 105.469 20.4983 105.469 22.0455H106.469H107.469C107.469 20.335 107.243 18.8328 106.753 17.5703L105.821 17.9318ZM106.469 22.0455H105.469V23.1818H106.469H107.469V22.0455H106.469ZM106.469 23.1818V22.1818H93.0142V23.1818V24.1818H106.469V23.1818ZM93.0142 23.1818H94.0142V20.8636H93.0142H92.0142V23.1818H93.0142ZM93.0142 20.8636V21.8636H103.741V20.8636V19.8636H93.0142V20.8636ZM103.741 20.8636H104.741C104.741 19.7425 104.516 18.7045 104.041 17.7731L103.151 18.2273L102.26 18.6815C102.573 19.2955 102.741 20.0151 102.741 20.8636H103.741ZM103.151 18.2273L104.045 17.7801C103.578 16.8453 102.899 16.0948 102.019 15.5482L101.491 16.3977L100.964 17.2472C101.523 17.5946 101.951 18.0638 102.256 18.6745L103.151 18.2273ZM101.491 16.3977L102.023 15.5507C101.128 14.9892 100.097 14.7273 98.9688 14.7273V15.7273V16.7273C99.7798 16.7273 100.43 16.9123 100.96 17.2447L101.491 16.3977ZM98.9688 15.7273V14.7273C97.7275 14.7273 96.6014 15.0382 95.6339 15.6957L96.196 16.5227L96.7581 17.3498C97.3513 16.9467 98.0736 16.7273 98.9688 16.7273V15.7273ZM96.196 16.5227L95.6357 15.6944C94.7188 16.3147 94.0089 17.1293 93.5159 18.1242L94.4119 18.5682L95.308 19.0122C95.6483 18.3253 96.1278 17.7762 96.7563 17.351L96.196 16.5227ZM94.4119 18.5682L93.5159 18.1242C93.0291 19.1067 92.7869 20.1606 92.7869 21.2727H93.7869H94.7869C94.7869 20.4606 94.9614 19.7115 95.308 19.0122L94.4119 18.5682ZM93.7869 21.2727H92.7869V22.8182H93.7869H94.7869V21.2727H93.7869ZM93.7869 22.8182H92.7869C92.7869 24.2475 93.033 25.526 93.5728 26.6147L94.4688 26.1705L95.3647 25.7262C94.9954 24.9815 94.7869 24.0252 94.7869 22.8182H93.7869ZM94.4688 26.1705L93.5773 26.6236C94.1195 27.6903 94.8884 28.5322 95.8853 29.1138L96.3892 28.25L96.8931 27.3862C96.2536 27.0132 95.7422 26.4688 95.3602 25.7173L94.4688 26.1705ZM96.3892 28.25L95.8913 29.1173C96.8823 29.6861 98.0097 29.9545 99.2415 29.9545V28.9545V27.9545C98.3066 27.9545 97.5325 27.7533 96.8871 27.3827L96.3892 28.25ZM99.2415 28.9545V29.9545C100.039 29.9545 100.788 29.8431 101.478 29.6039L101.151 28.6591L100.823 27.7143C100.377 27.869 99.8532 27.9545 99.2415 27.9545V28.9545ZM101.151 28.6591L101.485 29.6014C102.188 29.3519 102.808 28.9759 103.333 28.4701L102.639 27.75L101.945 27.0299C101.637 27.3272 101.265 27.5572 100.816 27.7168L101.151 28.6591ZM102.639 27.75L103.34 28.4636C103.871 27.9417 104.269 27.3061 104.541 26.5784L103.605 26.2273L102.669 25.8761C102.487 26.3606 102.24 26.7401 101.939 27.0364L102.639 27.75ZM103.605 26.2273L103.335 27.1901L105.926 27.9173L106.196 26.9545L106.466 25.9918L103.875 25.2645L103.605 26.2273ZM106.196 26.9545L105.241 26.6581C105.015 27.3864 104.638 28.023 104.102 28.578L104.821 29.2727L105.54 29.9675C106.292 29.1891 106.832 28.2803 107.151 27.2509L106.196 26.9545ZM104.821 29.2727L104.106 28.5739C103.571 29.1216 102.899 29.5622 102.07 29.8872L102.435 30.8182L102.8 31.7492C103.865 31.3317 104.783 30.7421 105.536 29.9716L104.821 29.2727ZM102.435 30.8182L102.076 29.8846C101.261 30.1977 100.321 30.3636 99.2415 30.3636V31.3636V32.3636C100.526 32.3636 101.715 32.1659 102.793 31.7517L102.435 30.8182ZM113.287 30.2614L112.732 31.0934L112.736 31.096L113.287 30.2614ZM110.673 27.125L109.766 27.5457L109.767 27.5476L110.673 27.125ZM110.673 17.5455L109.767 17.1228V17.1228L110.673 17.5455ZM113.298 14.4205L112.75 13.5841V13.5841L113.298 14.4205ZM119.878 13.8864L119.38 14.7535L119.391 14.7601L119.878 13.8864ZM121.401 15.1591L120.593 15.7488L120.598 15.756L120.604 15.7632L121.401 15.1591ZM122.23 16.3182L121.392 16.8632L121.687 17.3182H122.23V16.3182ZM122.457 16.3182V17.3182H123.457V16.3182H122.457ZM122.457 7.72727V6.72727H121.457V7.72727H122.457ZM125.139 7.72727H126.139V6.72727H125.139V7.72727ZM125.139 31V32H126.139V31H125.139ZM122.548 31H121.548V32H122.548V31ZM122.548 28.3182H123.548V27.3182H122.548V28.3182ZM122.23 28.3182V27.3182H121.673L121.38 27.7918L122.23 28.3182ZM121.389 29.5227L122.185 30.1288L122.189 30.1227L121.389 29.5227ZM119.832 30.8068L120.315 31.6829L120.322 31.6787L119.832 30.8068ZM120.23 28.1136L120.833 28.9117L120.838 28.9078L120.23 28.1136ZM121.923 25.7614L122.856 26.1218L122.857 26.1194L121.923 25.7614ZM121.935 18.8523L121.001 19.2113L121.002 19.2137L121.935 18.8523ZM120.253 16.5568L119.655 17.3588L119.661 17.3627L120.253 16.5568ZM114.662 16.6023L115.271 17.3955L115.272 17.3946L114.662 16.6023ZM112.969 18.9545L112.034 18.598L112.033 18.6018L112.969 18.9545ZM112.98 25.6591L112.043 26.0087L112.046 26.0171L112.98 25.6591ZM114.685 28.0682L114.061 28.8499L114.07 28.8567L114.685 28.0682ZM117.139 31.3636V30.3636C115.862 30.3636 114.773 30.044 113.838 29.4267L113.287 30.2614L112.736 31.096C114.028 31.9484 115.507 32.3636 117.139 32.3636V31.3636ZM113.287 30.2614L113.842 29.4293C112.897 28.7996 112.14 27.9038 111.58 26.7024L110.673 27.125L109.767 27.5476C110.464 29.0431 111.449 30.2382 112.732 31.0934L113.287 30.2614ZM110.673 27.125L111.581 26.7043C111.026 25.5075 110.73 24.0549 110.73 22.3182H109.73H108.73C108.73 24.2784 109.063 26.0304 109.766 27.5457L110.673 27.125ZM109.73 22.3182H110.73C110.73 20.5977 111.025 19.1572 111.58 17.9681L110.673 17.5455L109.767 17.1228C109.064 18.6307 108.73 20.3719 108.73 22.3182H109.73ZM110.673 17.5455L111.58 17.9681C112.139 16.769 112.898 15.8788 113.846 15.2568L113.298 14.4205L112.75 13.5841C111.457 14.4318 110.465 15.6249 109.767 17.1228L110.673 17.5455ZM113.298 14.4205L113.846 15.2568C114.789 14.639 115.89 14.3182 117.185 14.3182V13.3182V12.3182C115.54 12.3182 114.05 12.7323 112.75 13.5841L113.298 14.4205ZM117.185 13.3182V14.3182C118.226 14.3182 118.929 14.4945 119.38 14.7534L119.878 13.8864L120.376 13.0194C119.508 12.5207 118.416 12.3182 117.185 12.3182V13.3182ZM119.878 13.8864L119.391 14.7601C119.967 15.0806 120.351 15.4171 120.593 15.7488L121.401 15.1591L122.208 14.5694C121.753 13.9466 121.122 13.4345 120.364 13.0127L119.878 13.8864ZM121.401 15.1591L120.604 15.7632C120.953 16.224 121.213 16.5889 121.392 16.8632L122.23 16.3182L123.069 15.7732C122.853 15.4414 122.56 15.0336 122.197 14.555L121.401 15.1591ZM122.23 16.3182V17.3182H122.457V16.3182V15.3182H122.23V16.3182ZM122.457 16.3182H123.457V7.72727H122.457H121.457V16.3182H122.457ZM122.457 7.72727V8.72727H125.139V7.72727V6.72727H122.457V7.72727ZM125.139 7.72727H124.139V31H125.139H126.139V7.72727H125.139ZM125.139 31V30H122.548V31V32H125.139V31ZM122.548 31H123.548V28.3182H122.548H121.548V31H122.548ZM122.548 28.3182V27.3182H122.23V28.3182V29.3182H122.548V28.3182ZM122.23 28.3182L121.38 27.7918C121.205 28.0742 120.944 28.4491 120.589 28.9227L121.389 29.5227L122.189 30.1227C122.561 29.6267 122.861 29.1986 123.08 28.8445L122.23 28.3182ZM121.389 29.5227L120.594 28.9167C120.333 29.259 119.931 29.6045 119.343 29.935L119.832 30.8068L120.322 31.6787C121.082 31.2515 121.718 30.741 122.185 30.1288L121.389 29.5227ZM119.832 30.8068L119.35 29.9308C118.876 30.1919 118.164 30.3636 117.139 30.3636V31.3636V32.3636C118.357 32.3636 119.44 32.1641 120.315 31.6828L119.832 30.8068ZM117.503 28.9545V29.9545C118.761 29.9545 119.89 29.6232 120.833 28.9117L120.23 28.1136L119.628 27.3156C119.085 27.7253 118.397 27.9545 117.503 27.9545V28.9545ZM120.23 28.1136L120.838 28.9078C121.747 28.212 122.413 27.2678 122.856 26.1218L121.923 25.7614L120.99 25.401C120.661 26.2549 120.198 26.8789 119.622 27.3195L120.23 28.1136ZM121.923 25.7614L122.857 26.1194C123.296 24.9753 123.503 23.687 123.503 22.2727H122.503H121.503C121.503 23.4948 121.324 24.5322 120.99 25.4033L121.923 25.7614ZM122.503 22.2727H123.503C123.503 20.8751 123.3 19.6077 122.867 18.4909L121.935 18.8523L121.002 19.2137C121.327 20.0514 121.503 21.0643 121.503 22.2727H122.503ZM121.935 18.8523L122.868 18.4933C122.431 17.3565 121.763 16.4254 120.845 15.7509L120.253 16.5568L119.661 17.3627C120.228 17.7791 120.681 18.3783 121.001 19.2113L121.935 18.8523ZM120.253 16.5568L120.85 15.7549C119.906 15.0514 118.769 14.7273 117.503 14.7273V15.7273V16.7273C118.418 16.7273 119.115 16.9562 119.655 17.3588L120.253 16.5568ZM117.503 15.7273V14.7273C116.189 14.7273 115.016 15.0679 114.052 15.8099L114.662 16.6023L115.272 17.3946C115.823 16.97 116.544 16.7273 117.503 16.7273V15.7273ZM114.662 16.6023L114.053 15.8091C113.139 16.5109 112.471 17.4546 112.034 18.598L112.969 18.9545L113.903 19.3111C114.224 18.4696 114.685 17.8451 115.271 17.3955L114.662 16.6023ZM112.969 18.9545L112.033 18.6018C111.613 19.7165 111.412 20.9446 111.412 22.2727H112.412H113.412C113.412 21.1463 113.582 20.1623 113.904 19.3072L112.969 18.9545ZM112.412 22.2727H111.412C111.412 23.6172 111.617 24.8666 112.043 26.0087L112.98 25.6591L113.917 25.3095C113.586 24.4213 113.412 23.4131 113.412 22.2727H112.412ZM112.98 25.6591L112.046 26.0171C112.488 27.1698 113.155 28.1269 114.061 28.8498L114.685 28.0682L115.308 27.2865C114.714 26.8125 114.245 26.1635 113.914 25.3011L112.98 25.6591ZM114.685 28.0682L114.07 28.8567C115.031 29.6067 116.198 29.9545 117.503 29.9545V28.9545V27.9545C116.566 27.9545 115.853 27.7114 115.3 27.2797L114.685 28.0682Z" fill="black" mask="url(#path-4-outside-1_210_110)"/>
</g>
<g filter="url(#filter1_d_210_110)">
<mask id="path-6-outside-2_210_110" maskUnits="userSpaceOnUse" x="63" y="31" width="55" height="27" fill="black">
<rect fill="white" x="63" y="31" width="55" height="27"/>
<path d="M75.4545 48.8636V38.5455H78.1364V56H75.4545V53.0455H75.2727C74.8636 53.9318 74.2273 54.6856 73.3636 55.3068C72.5 55.9205 71.4091 56.2273 70.0909 56.2273C69 56.2273 68.0303 55.9886 67.1818 55.5114C66.3333 55.0265 65.6667 54.2992 65.1818 53.3295C64.697 52.3523 64.4545 51.1212 64.4545 49.6364V38.5455H67.1364V49.4545C67.1364 50.7273 67.4924 51.7424 68.2045 52.5C68.9242 53.2576 69.8409 53.6364 70.9545 53.6364C71.6212 53.6364 72.2992 53.4659 72.9886 53.125C73.6856 52.7841 74.2689 52.2614 74.7386 51.5568C75.2159 50.8523 75.4545 49.9545 75.4545 48.8636ZM83.0483 56V38.5455H85.7301V56H83.0483ZM84.4119 35.6364C83.8892 35.6364 83.4384 35.4583 83.0597 35.1023C82.6884 34.7462 82.5028 34.3182 82.5028 33.8182C82.5028 33.3182 82.6884 32.8902 83.0597 32.5341C83.4384 32.178 83.8892 32 84.4119 32C84.9347 32 85.3816 32.178 85.7528 32.5341C86.1316 32.8902 86.321 33.3182 86.321 33.8182C86.321 34.3182 86.1316 34.7462 85.7528 35.1023C85.3816 35.4583 84.9347 35.6364 84.4119 35.6364ZM90.642 56V38.5455H93.233V41.1818H93.4148C93.733 40.3182 94.3087 39.6174 95.142 39.0795C95.9754 38.5417 96.9148 38.2727 97.9602 38.2727C98.1572 38.2727 98.4034 38.2765 98.6989 38.2841C98.9943 38.2917 99.2178 38.303 99.3693 38.3182V41.0455C99.2784 41.0227 99.0701 40.9886 98.7443 40.9432C98.4261 40.8902 98.089 40.8636 97.733 40.8636C96.8845 40.8636 96.1269 41.0417 95.4602 41.3977C94.8011 41.7462 94.2784 42.2311 93.892 42.8523C93.5133 43.4659 93.3239 44.1667 93.3239 44.9545V56H90.642ZM109.335 56.3636C107.653 56.3636 106.203 55.9924 104.983 55.25C103.771 54.5 102.835 53.4545 102.176 52.1136C101.525 50.7652 101.199 49.197 101.199 47.4091C101.199 45.6212 101.525 44.0455 102.176 42.6818C102.835 41.3106 103.752 40.2424 104.926 39.4773C106.108 38.7045 107.487 38.3182 109.062 38.3182C109.972 38.3182 110.869 38.4697 111.756 38.7727C112.642 39.0758 113.449 39.5682 114.176 40.25C114.903 40.9242 115.483 41.8182 115.915 42.9318C116.347 44.0455 116.562 45.4167 116.562 47.0455V48.1818H103.108V45.8636H113.835C113.835 44.8788 113.638 44 113.244 43.2273C112.858 42.4545 112.305 41.8447 111.585 41.3977C110.873 40.9508 110.032 40.7273 109.062 40.7273C107.994 40.7273 107.07 40.9924 106.29 41.5227C105.517 42.0455 104.922 42.7273 104.506 43.5682C104.089 44.4091 103.881 45.3106 103.881 46.2727V47.8182C103.881 49.1364 104.108 50.2538 104.562 51.1705C105.025 52.0795 105.665 52.7727 106.483 53.25C107.301 53.7197 108.252 53.9545 109.335 53.9545C110.04 53.9545 110.676 53.8561 111.244 53.6591C111.82 53.4545 112.316 53.1515 112.733 52.75C113.15 52.3409 113.472 51.8333 113.699 51.2273L116.29 51.9545C116.017 52.8333 115.559 53.6061 114.915 54.2727C114.271 54.9318 113.475 55.447 112.528 55.8182C111.581 56.1818 110.517 56.3636 109.335 56.3636Z"/>
</mask>
<path d="M75.4545 48.8636V38.5455H78.1364V56H75.4545V53.0455H75.2727C74.8636 53.9318 74.2273 54.6856 73.3636 55.3068C72.5 55.9205 71.4091 56.2273 70.0909 56.2273C69 56.2273 68.0303 55.9886 67.1818 55.5114C66.3333 55.0265 65.6667 54.2992 65.1818 53.3295C64.697 52.3523 64.4545 51.1212 64.4545 49.6364V38.5455H67.1364V49.4545C67.1364 50.7273 67.4924 51.7424 68.2045 52.5C68.9242 53.2576 69.8409 53.6364 70.9545 53.6364C71.6212 53.6364 72.2992 53.4659 72.9886 53.125C73.6856 52.7841 74.2689 52.2614 74.7386 51.5568C75.2159 50.8523 75.4545 49.9545 75.4545 48.8636ZM83.0483 56V38.5455H85.7301V56H83.0483ZM84.4119 35.6364C83.8892 35.6364 83.4384 35.4583 83.0597 35.1023C82.6884 34.7462 82.5028 34.3182 82.5028 33.8182C82.5028 33.3182 82.6884 32.8902 83.0597 32.5341C83.4384 32.178 83.8892 32 84.4119 32C84.9347 32 85.3816 32.178 85.7528 32.5341C86.1316 32.8902 86.321 33.3182 86.321 33.8182C86.321 34.3182 86.1316 34.7462 85.7528 35.1023C85.3816 35.4583 84.9347 35.6364 84.4119 35.6364ZM90.642 56V38.5455H93.233V41.1818H93.4148C93.733 40.3182 94.3087 39.6174 95.142 39.0795C95.9754 38.5417 96.9148 38.2727 97.9602 38.2727C98.1572 38.2727 98.4034 38.2765 98.6989 38.2841C98.9943 38.2917 99.2178 38.303 99.3693 38.3182V41.0455C99.2784 41.0227 99.0701 40.9886 98.7443 40.9432C98.4261 40.8902 98.089 40.8636 97.733 40.8636C96.8845 40.8636 96.1269 41.0417 95.4602 41.3977C94.8011 41.7462 94.2784 42.2311 93.892 42.8523C93.5133 43.4659 93.3239 44.1667 93.3239 44.9545V56H90.642ZM109.335 56.3636C107.653 56.3636 106.203 55.9924 104.983 55.25C103.771 54.5 102.835 53.4545 102.176 52.1136C101.525 50.7652 101.199 49.197 101.199 47.4091C101.199 45.6212 101.525 44.0455 102.176 42.6818C102.835 41.3106 103.752 40.2424 104.926 39.4773C106.108 38.7045 107.487 38.3182 109.062 38.3182C109.972 38.3182 110.869 38.4697 111.756 38.7727C112.642 39.0758 113.449 39.5682 114.176 40.25C114.903 40.9242 115.483 41.8182 115.915 42.9318C116.347 44.0455 116.562 45.4167 116.562 47.0455V48.1818H103.108V45.8636H113.835C113.835 44.8788 113.638 44 113.244 43.2273C112.858 42.4545 112.305 41.8447 111.585 41.3977C110.873 40.9508 110.032 40.7273 109.062 40.7273C107.994 40.7273 107.07 40.9924 106.29 41.5227C105.517 42.0455 104.922 42.7273 104.506 43.5682C104.089 44.4091 103.881 45.3106 103.881 46.2727V47.8182C103.881 49.1364 104.108 50.2538 104.562 51.1705C105.025 52.0795 105.665 52.7727 106.483 53.25C107.301 53.7197 108.252 53.9545 109.335 53.9545C110.04 53.9545 110.676 53.8561 111.244 53.6591C111.82 53.4545 112.316 53.1515 112.733 52.75C113.15 52.3409 113.472 51.8333 113.699 51.2273L116.29 51.9545C116.017 52.8333 115.559 53.6061 114.915 54.2727C114.271 54.9318 113.475 55.447 112.528 55.8182C111.581 56.1818 110.517 56.3636 109.335 56.3636Z" fill="#185BF1" fill-opacity="0.55" shape-rendering="crispEdges"/>
<path d="M75.4545 38.5455V37.5455H74.4545V38.5455H75.4545ZM78.1364 38.5455H79.1364V37.5455H78.1364V38.5455ZM78.1364 56V57H79.1364V56H78.1364ZM75.4545 56H74.4545V57H75.4545V56ZM75.4545 53.0455H76.4545V52.0455H75.4545V53.0455ZM75.2727 53.0455V52.0455H74.6329L74.3648 52.6264L75.2727 53.0455ZM73.3636 55.3068L73.9429 56.122L73.9476 56.1186L73.3636 55.3068ZM67.1818 55.5114L66.6857 56.3796L66.6916 56.3829L67.1818 55.5114ZM65.1818 53.3295L64.286 53.774L64.2874 53.7768L65.1818 53.3295ZM64.4545 38.5455V37.5455H63.4545V38.5455H64.4545ZM67.1364 38.5455H68.1364V37.5455H67.1364V38.5455ZM68.2045 52.5L67.4759 53.1849L67.4795 53.1887L68.2045 52.5ZM72.9886 53.125L72.5492 52.2267L72.5454 52.2286L72.9886 53.125ZM74.7386 51.5568L73.9107 50.996L73.9066 51.0021L74.7386 51.5568ZM75.4545 48.8636H76.4545V38.5455H75.4545H74.4545V48.8636H75.4545ZM75.4545 38.5455V39.5455H78.1364V38.5455V37.5455H75.4545V38.5455ZM78.1364 38.5455H77.1364V56H78.1364H79.1364V38.5455H78.1364ZM78.1364 56V55H75.4545V56V57H78.1364V56ZM75.4545 56H76.4545V53.0455H75.4545H74.4545V56H75.4545ZM75.4545 53.0455V52.0455H75.2727V53.0455V54.0455H75.4545V53.0455ZM75.2727 53.0455L74.3648 52.6264C74.0344 53.3422 73.5162 53.9653 72.7797 54.495L73.3636 55.3068L73.9476 56.1186C74.9384 55.4059 75.6929 54.5214 76.1807 53.4645L75.2727 53.0455ZM73.3636 55.3068L72.7844 54.4916C72.1274 54.9584 71.2527 55.2273 70.0909 55.2273V56.2273V57.2273C71.5655 57.2273 72.8726 56.8825 73.9428 56.122L73.3636 55.3068ZM70.0909 56.2273V55.2273C69.1506 55.2273 68.3535 55.0231 67.6721 54.6398L67.1818 55.5114L66.6916 56.3829C67.7071 56.9542 68.8494 57.2273 70.0909 57.2273V56.2273ZM67.1818 55.5114L67.678 54.6431C67.0194 54.2668 66.4828 53.6955 66.0762 52.8823L65.1818 53.3295L64.2874 53.7768C64.8505 54.903 65.6473 55.7862 66.6857 56.3796L67.1818 55.5114ZM65.1818 53.3295L66.0776 52.8851C65.6815 52.0866 65.4545 51.0198 65.4545 49.6364H64.4545H63.4545C63.4545 51.2226 63.7125 52.618 64.286 53.774L65.1818 53.3295ZM64.4545 49.6364H65.4545V38.5455H64.4545H63.4545V49.6364H64.4545ZM64.4545 38.5455V39.5455H67.1364V38.5455V37.5455H64.4545V38.5455ZM67.1364 38.5455H66.1364V49.4545H67.1364H68.1364V38.5455H67.1364ZM67.1364 49.4545H66.1364C66.1364 50.9217 66.5523 52.2023 67.4759 53.1849L68.2045 52.5L68.9332 51.8151C68.4326 51.2825 68.1364 50.5328 68.1364 49.4545H67.1364ZM68.2045 52.5L67.4795 53.1887C68.4015 54.1592 69.5869 54.6364 70.9545 54.6364V53.6364V52.6364C70.0949 52.6364 69.447 52.356 68.9295 51.8113L68.2045 52.5ZM70.9545 53.6364V54.6364C71.797 54.6364 72.6259 54.42 73.4319 54.0214L72.9886 53.125L72.5454 52.2286C71.9726 52.5118 71.4454 52.6364 70.9545 52.6364V53.6364ZM72.9886 53.125L73.428 54.0233C74.2983 53.5976 75.0121 52.9495 75.5707 52.1115L74.7386 51.5568L73.9066 51.0021C73.5258 51.5733 73.0729 51.9706 72.5493 52.2267L72.9886 53.125ZM74.7386 51.5568L75.5666 52.1177C76.1838 51.2065 76.4545 50.0984 76.4545 48.8636H75.4545H74.4545C74.4545 49.8107 74.248 50.498 73.9107 50.996L74.7386 51.5568ZM83.0483 56H82.0483V57H83.0483V56ZM83.0483 38.5455V37.5455H82.0483V38.5455H83.0483ZM85.7301 38.5455H86.7301V37.5455H85.7301V38.5455ZM85.7301 56V57H86.7301V56H85.7301ZM83.0597 35.1023L82.3674 35.824L82.3747 35.8309L83.0597 35.1023ZM83.0597 32.5341L82.3747 31.8054L82.3674 31.8124L83.0597 32.5341ZM85.7528 32.5341L85.0606 33.2558L85.0679 33.2627L85.7528 32.5341ZM85.7528 35.1023L85.0679 34.3736L85.0606 34.3806L85.7528 35.1023ZM83.0483 56H84.0483V38.5455H83.0483H82.0483V56H83.0483ZM83.0483 38.5455V39.5455H85.7301V38.5455V37.5455H83.0483V38.5455ZM85.7301 38.5455H84.7301V56H85.7301H86.7301V38.5455H85.7301ZM85.7301 56V55H83.0483V56V57H85.7301V56ZM84.4119 35.6364V34.6364C84.1422 34.6364 83.9368 34.5543 83.7446 34.3736L83.0597 35.1023L82.3747 35.8309C82.9401 36.3624 83.6362 36.6364 84.4119 36.6364V35.6364ZM83.0597 35.1023L83.7519 34.3806C83.5709 34.207 83.5028 34.037 83.5028 33.8182H82.5028H81.5028C81.5028 34.5993 81.806 35.2854 82.3674 35.824L83.0597 35.1023ZM82.5028 33.8182H83.5028C83.5028 33.5993 83.5709 33.4293 83.7519 33.2558L83.0597 32.5341L82.3674 31.8124C81.806 32.351 81.5028 33.037 81.5028 33.8182H82.5028ZM83.0597 32.5341L83.7446 33.2627C83.9368 33.082 84.1422 33 84.4119 33V32V31C83.6362 31 82.9401 31.274 82.3748 31.8055L83.0597 32.5341ZM84.4119 32V33C84.6813 33 84.8789 33.0815 85.0606 33.2558L85.7528 32.5341L86.4451 31.8124C85.8843 31.2745 85.188 31 84.4119 31V32ZM85.7528 32.5341L85.0679 33.2627C85.2547 33.4382 85.321 33.6062 85.321 33.8182H86.321H87.321C87.321 33.0301 87.0086 32.3421 86.4378 31.8055L85.7528 32.5341ZM86.321 33.8182H85.321C85.321 34.0301 85.2547 34.1981 85.0679 34.3736L85.7528 35.1023L86.4377 35.8309C87.0086 35.2943 87.321 34.6062 87.321 33.8182H86.321ZM85.7528 35.1023L85.0606 34.3806C84.8789 34.5548 84.6813 34.6364 84.4119 34.6364V35.6364V36.6364C85.188 36.6364 85.8843 36.3618 86.4451 35.824L85.7528 35.1023ZM90.642 56H89.642V57H90.642V56ZM90.642 38.5455V37.5455H89.642V38.5455H90.642ZM93.233 38.5455H94.233V37.5455H93.233V38.5455ZM93.233 41.1818H92.233V42.1818H93.233V41.1818ZM93.4148 41.1818V42.1818H94.1121L94.3531 41.5275L93.4148 41.1818ZM95.142 39.0795L94.5997 38.2394L94.5997 38.2394L95.142 39.0795ZM99.3693 38.3182H100.369V37.4132L99.4688 37.3231L99.3693 38.3182ZM99.3693 41.0455L99.1268 42.0156L100.369 42.3262V41.0455H99.3693ZM98.7443 40.9432L98.5799 41.9296L98.593 41.9318L98.6061 41.9336L98.7443 40.9432ZM95.4602 41.3977L95.9277 42.2818L95.9313 42.2798L95.4602 41.3977ZM93.892 42.8523L93.0429 42.3241L93.0411 42.327L93.892 42.8523ZM93.3239 56V57H94.3239V56H93.3239ZM90.642 56H91.642V38.5455H90.642H89.642V56H90.642ZM90.642 38.5455V39.5455H93.233V38.5455V37.5455H90.642V38.5455ZM93.233 38.5455H92.233V41.1818H93.233H94.233V38.5455H93.233ZM93.233 41.1818V42.1818H93.4148V41.1818V40.1818H93.233V41.1818ZM93.4148 41.1818L94.3531 41.5275C94.5904 40.8834 95.0181 40.3498 95.6843 39.9197L95.142 39.0795L94.5997 38.2394C93.5993 38.8851 92.8755 39.7529 92.4764 40.8361L93.4148 41.1818ZM95.142 39.0795L95.6843 39.9197C96.3471 39.4919 97.0962 39.2727 97.9602 39.2727V38.2727V37.2727C96.7333 37.2727 95.6036 37.5914 94.5997 38.2394L95.142 39.0795ZM97.9602 38.2727V39.2727C98.1456 39.2727 98.3826 39.2763 98.6732 39.2838L98.6989 38.2841L98.7245 37.2844C98.4243 37.2767 98.1688 37.2727 97.9602 37.2727V38.2727ZM98.6989 38.2841L98.6732 39.2838C98.9623 39.2912 99.1561 39.3018 99.2698 39.3132L99.3693 38.3182L99.4688 37.3231C99.2795 37.3042 99.0263 37.2922 98.7245 37.2844L98.6989 38.2841ZM99.3693 38.3182H98.3693V41.0455H99.3693H100.369V38.3182H99.3693ZM99.3693 41.0455L99.6119 40.0753C99.4589 40.0371 99.1933 39.9961 98.8825 39.9528L98.7443 40.9432L98.6061 41.9336C98.765 41.9558 98.89 41.9744 98.9834 41.9897C99.03 41.9973 99.066 42.0037 99.0926 42.0087C99.1212 42.0142 99.1304 42.0165 99.1268 42.0156L99.3693 41.0455ZM98.7443 40.9432L98.9087 39.9568C98.5309 39.8938 98.1385 39.8636 97.733 39.8636V40.8636V41.8636C98.0395 41.8636 98.3213 41.8865 98.5799 41.9296L98.7443 40.9432ZM97.733 40.8636V39.8636C96.7406 39.8636 95.8178 40.0731 94.9891 40.5157L95.4602 41.3977L95.9313 42.2798C96.436 42.0103 97.0284 41.8636 97.733 41.8636V40.8636ZM95.4602 41.3977L94.9928 40.5137C94.1804 40.9433 93.5246 41.5496 93.0429 42.3241L93.892 42.8523L94.7412 43.3804C95.0322 42.9125 95.4219 42.5492 95.9276 42.2818L95.4602 41.3977ZM93.892 42.8523L93.0411 42.327C92.5559 43.113 92.3239 43.9989 92.3239 44.9545H93.3239H94.3239C94.3239 44.3344 94.4706 43.8188 94.743 43.3775L93.892 42.8523ZM93.3239 44.9545H92.3239V56H93.3239H94.3239V44.9545H93.3239ZM93.3239 56V55H90.642V56V57H93.3239V56ZM104.983 55.25L104.457 56.1004L104.463 56.1042L104.983 55.25ZM102.176 52.1136L101.276 52.5487L101.279 52.5548L102.176 52.1136ZM102.176 42.6818L101.275 42.2486L101.274 42.2507L102.176 42.6818ZM104.926 39.4773L105.472 40.3151L105.473 40.3142L104.926 39.4773ZM111.756 38.7727L112.079 37.8265V37.8265L111.756 38.7727ZM114.176 40.25L113.492 40.9795L113.496 40.9833L114.176 40.25ZM115.915 42.9318L116.847 42.5703V42.5703L115.915 42.9318ZM116.562 48.1818V49.1818H117.562V48.1818H116.562ZM103.108 48.1818H102.108V49.1818H103.108V48.1818ZM103.108 45.8636V44.8636H102.108V45.8636H103.108ZM113.835 45.8636V46.8636H114.835V45.8636H113.835ZM113.244 43.2273L112.35 43.6745L112.353 43.6815L113.244 43.2273ZM111.585 41.3977L111.054 42.2447L111.058 42.2472L111.585 41.3977ZM106.29 41.5227L106.85 42.351L106.852 42.3498L106.29 41.5227ZM104.506 43.5682L103.61 43.1242V43.1242L104.506 43.5682ZM104.562 51.1705L103.667 51.6147L103.671 51.6236L104.562 51.1705ZM106.483 53.25L105.979 54.1138L105.985 54.1173L106.483 53.25ZM111.244 53.6591L111.572 54.604L111.579 54.6014L111.244 53.6591ZM112.733 52.75L113.427 53.4701L113.434 53.4636L112.733 52.75ZM113.699 51.2273L113.969 50.2645L113.085 50.0163L112.763 50.8761L113.699 51.2273ZM116.29 51.9545L117.245 52.2509L117.549 51.2695L116.56 50.9918L116.29 51.9545ZM114.915 54.2727L115.63 54.9716L115.634 54.9675L114.915 54.2727ZM112.528 55.8182L112.887 56.7517L112.893 56.7492L112.528 55.8182ZM109.335 56.3636V55.3636C107.804 55.3636 106.54 55.0271 105.503 54.3958L104.983 55.25L104.463 56.1042C105.865 56.9578 107.503 57.3636 109.335 57.3636V56.3636ZM104.983 55.25L105.509 54.3996C104.465 53.7533 103.654 52.8534 103.074 51.6725L102.176 52.1136L101.279 52.5548C102.016 54.0557 103.077 55.2467 104.457 56.1004L104.983 55.25ZM102.176 52.1136L103.077 51.6786C102.502 50.4896 102.199 49.0752 102.199 47.4091H101.199H100.199C100.199 49.3188 100.547 51.0407 101.276 52.5487L102.176 52.1136ZM101.199 47.4091H102.199C102.199 45.7433 102.502 44.3195 103.078 43.1129L102.176 42.6818L101.274 42.2507C100.547 43.7714 100.199 45.4991 100.199 47.4091H101.199ZM102.176 42.6818L103.077 43.115C103.664 41.8941 104.464 40.9719 105.472 40.3151L104.926 39.4773L104.38 38.6394C103.04 39.5129 102.006 40.7272 101.275 42.2486L102.176 42.6818ZM104.926 39.4773L105.473 40.3142C106.474 39.66 107.658 39.3182 109.062 39.3182V38.3182V37.3182C107.316 37.3182 105.742 37.7491 104.379 38.6403L104.926 39.4773ZM109.062 38.3182V39.3182C109.858 39.3182 110.647 39.4504 111.432 39.719L111.756 38.7727L112.079 37.8265C111.092 37.489 110.085 37.3182 109.062 37.3182V38.3182ZM111.756 38.7727L111.432 39.719C112.176 39.9732 112.862 40.3883 113.492 40.9795L114.176 40.25L114.86 39.5205C114.036 38.748 113.108 38.1783 112.079 37.8265L111.756 38.7727ZM114.176 40.25L113.496 40.9833C114.092 41.5354 114.594 42.2927 114.982 43.2933L115.915 42.9318L116.847 42.5703C116.372 41.3437 115.715 40.313 114.856 39.5167L114.176 40.25ZM115.915 42.9318L114.982 43.2933C115.356 44.2581 115.562 45.4983 115.562 47.0455H116.562H117.562C117.562 45.335 117.337 43.8328 116.847 42.5703L115.915 42.9318ZM116.562 47.0455H115.562V48.1818H116.562H117.562V47.0455H116.562ZM116.562 48.1818V47.1818H103.108V48.1818V49.1818H116.562V48.1818ZM103.108 48.1818H104.108V45.8636H103.108H102.108V48.1818H103.108ZM103.108 45.8636V46.8636H113.835V45.8636V44.8636H103.108V45.8636ZM113.835 45.8636H114.835C114.835 44.7425 114.61 43.7045 114.135 42.7731L113.244 43.2273L112.353 43.6815C112.666 44.2955 112.835 45.0151 112.835 45.8636H113.835ZM113.244 43.2273L114.139 42.7801C113.671 41.8453 112.993 41.0948 112.113 40.5482L111.585 41.3977L111.058 42.2472C111.617 42.5946 112.045 43.0638 112.35 43.6745L113.244 43.2273ZM111.585 41.3977L112.117 40.5507C111.222 39.9892 110.191 39.7273 109.062 39.7273V40.7273V41.7273C109.874 41.7273 110.524 41.9123 111.054 42.2447L111.585 41.3977ZM109.062 40.7273V39.7273C107.821 39.7273 106.695 40.0382 105.728 40.6957L106.29 41.5227L106.852 42.3498C107.445 41.9467 108.167 41.7273 109.062 41.7273V40.7273ZM106.29 41.5227L105.729 40.6944C104.813 41.3147 104.103 42.1293 103.61 43.1242L104.506 43.5682L105.402 44.0122C105.742 43.3253 106.222 42.7762 106.85 42.351L106.29 41.5227ZM104.506 43.5682L103.61 43.1242C103.123 44.1067 102.881 45.1606 102.881 46.2727H103.881H104.881C104.881 45.4606 105.055 44.7115 105.402 44.0122L104.506 43.5682ZM103.881 46.2727H102.881V47.8182H103.881H104.881V46.2727H103.881ZM103.881 47.8182H102.881C102.881 49.2475 103.127 50.526 103.667 51.6147L104.562 51.1705L105.458 50.7262C105.089 49.9815 104.881 49.0252 104.881 47.8182H103.881ZM104.562 51.1705L103.671 51.6236C104.213 52.6903 104.982 53.5322 105.979 54.1138L106.483 53.25L106.987 52.3862C106.347 52.0132 105.836 51.4688 105.454 50.7173L104.562 51.1705ZM106.483 53.25L105.985 54.1173C106.976 54.6861 108.103 54.9545 109.335 54.9545V53.9545V52.9545C108.4 52.9545 107.626 52.7533 106.981 52.3827L106.483 53.25ZM109.335 53.9545V54.9545C110.133 54.9545 110.882 54.8431 111.572 54.6039L111.244 53.6591L110.917 52.7143C110.47 52.869 109.947 52.9545 109.335 52.9545V53.9545ZM111.244 53.6591L111.579 54.6014C112.281 54.3519 112.902 53.9759 113.427 53.4701L112.733 52.75L112.039 52.0299C111.731 52.3272 111.359 52.5572 110.91 52.7168L111.244 53.6591ZM112.733 52.75L113.434 53.4636C113.965 52.9417 114.362 52.3061 114.635 51.5784L113.699 51.2273L112.763 50.8761C112.581 51.3606 112.334 51.7401 112.032 52.0364L112.733 52.75ZM113.699 51.2273L113.429 52.1901L116.02 52.9173L116.29 51.9545L116.56 50.9918L113.969 50.2645L113.699 51.2273ZM116.29 51.9545L115.335 51.6581C115.109 52.3864 114.732 53.023 114.196 53.578L114.915 54.2727L115.634 54.9675C116.386 54.1891 116.925 53.2803 117.245 52.2509L116.29 51.9545ZM114.915 54.2727L114.199 53.5739C113.664 54.1216 112.992 54.5622 112.163 54.8872L112.528 55.8182L112.893 56.7492C113.958 56.3317 114.877 55.7421 115.63 54.9716L114.915 54.2727ZM112.528 55.8182L112.17 54.8846C111.355 55.1977 110.414 55.3636 109.335 55.3636V56.3636V57.3636C110.62 57.3636 111.808 57.1659 112.887 56.7517L112.528 55.8182Z" fill="#2E56AD" mask="url(#path-6-outside-2_210_110)"/>
</g>
<defs>
<filter id="filter0_d_210_110" x="58.8182" y="4.22726" width="71.321" height="33.6364" filterUnits="userSpaceOnUse" color-interpolation-filters="sRGB">
<feFlood flood-opacity="0" result="BackgroundImageFix"/>
<feColorMatrix in="SourceAlpha" type="matrix" values="0 0 0 0 0 0 0 0 0 0 0 0 0 0 0 0 0 0 127 0" result="hardAlpha"/>
<feOffset dy="1.5"/>
<feGaussianBlur stdDeviation="2"/>
<feComposite in2="hardAlpha" operator="out"/>
<feColorMatrix type="matrix" values="0 0 0 0 0 0 0 0 0 0 0 0 0 0 0 0 0 0 0.25 0"/>
<feBlend mode="normal" in2="BackgroundImageFix" result="effect1_dropShadow_210_110"/>
<feBlend mode="normal" in="SourceGraphic" in2="effect1_dropShadow_210_110" result="shape"/>
</filter>
<filter id="filter1_d_210_110" x="59.4545" y="28" width="62.108" height="34.3636" filterUnits="userSpaceOnUse" color-interpolation-filters="sRGB">
<feFlood flood-opacity="0" result="BackgroundImageFix"/>
<feColorMatrix in="SourceAlpha" type="matrix" values="0 0 0 0 0 0 0 0 0 0 0 0 0 0 0 0 0 0 127 0" result="hardAlpha"/>
<feOffset dy="1"/>
<feGaussianBlur stdDeviation="2"/>
<feComposite in2="hardAlpha" operator="out"/>
<feColorMatrix type="matrix" values="0 0 0 0 0 0 0 0 0 0 0 0 0 0 0 0 0 0 0.25 0"/>
<feBlend mode="normal" in2="BackgroundImageFix" result="effect1_dropShadow_210_110"/>
<feBlend mode="normal" in="SourceGraphic" in2="effect1_dropShadow_210_110" result="shape"/>
</filter>
</defs>
</svg>
