<svg width="155" height="100" viewBox="0 0 155 100" fill="none" xmlns="http://www.w3.org/2000/svg">
<rect width="155" height="100" fill="#07235F"/>
<circle cx="39" cy="49" r="26" fill="#F2F2F2" stroke="#4077F1" stroke-width="4"/>
<path d="M54 60L72 75" stroke="#4077F1" stroke-width="4" stroke-linecap="round"/>
<path d="M54 60L72 75" stroke="#4077F1" stroke-width="4" stroke-linecap="round"/>
<path d="M19 49.5714H25.087L30.3043 38L36.3913 62L41.6087 44.4286L47.6957 55.1429L50.3043 47H59" stroke="#0B348E" stroke-width="2" stroke-linecap="round"/>
<g filter="url(#filter0_d_1534_2)">
<mask id="path-4-outside-1_1534_2" maskUnits="userSpaceOnUse" x="73" y="24" width="65" height="27" fill="black">
<rect fill="white" x="73" y="24" width="65" height="27"/>
<path d="M74.8182 25.7273H78.1818L86.0909 45.0455H86.3636L94.2727 25.7273H97.6364V49H95V31.3182H94.7727L87.5 49H84.9545L77.6818 31.3182H77.4545V49H74.8182V25.7273ZM110.241 49.3636C108.56 49.3636 107.109 48.9924 105.889 48.25C104.677 47.5 103.741 46.4545 103.082 45.1136C102.431 43.7652 102.105 42.197 102.105 40.4091C102.105 38.6212 102.431 37.0455 103.082 35.6818C103.741 34.3106 104.658 33.2424 105.832 32.4773C107.014 31.7045 108.393 31.3182 109.969 31.3182C110.878 31.3182 111.776 31.4697 112.662 31.7727C113.548 32.0758 114.355 32.5682 115.082 33.25C115.81 33.9242 116.389 34.8182 116.821 35.9318C117.253 37.0455 117.469 38.4167 117.469 40.0455V41.1818H104.014V38.8636H114.741C114.741 37.8788 114.545 37 114.151 36.2273C113.764 35.4545 113.211 34.8447 112.491 34.3977C111.779 33.9508 110.938 33.7273 109.969 33.7273C108.901 33.7273 107.976 33.9924 107.196 34.5227C106.423 35.0455 105.829 35.7273 105.412 36.5682C104.995 37.4091 104.787 38.3106 104.787 39.2727V40.8182C104.787 42.1364 105.014 43.2538 105.469 44.1705C105.931 45.0795 106.571 45.7727 107.389 46.25C108.207 46.7197 109.158 46.9545 110.241 46.9545C110.946 46.9545 111.582 46.8561 112.151 46.6591C112.726 46.4545 113.223 46.1515 113.639 45.75C114.056 45.3409 114.378 44.8333 114.605 44.2273L117.196 44.9545C116.923 45.8333 116.465 46.6061 115.821 47.2727C115.177 47.9318 114.382 48.447 113.435 48.8182C112.488 49.1818 111.423 49.3636 110.241 49.3636ZM128.139 49.3636C126.685 49.3636 125.401 48.9962 124.287 48.2614C123.173 47.5189 122.302 46.4735 121.673 45.125C121.045 43.7689 120.73 42.1667 120.73 40.3182C120.73 38.4848 121.045 36.8939 121.673 35.5455C122.302 34.197 123.177 33.1553 124.298 32.4205C125.42 31.6856 126.715 31.3182 128.185 31.3182C129.321 31.3182 130.219 31.5076 130.878 31.8864C131.545 32.2576 132.052 32.6818 132.401 33.1591C132.757 33.6288 133.033 34.0152 133.23 34.3182H133.457V25.7273H136.139V49H133.548V46.3182H133.23C133.033 46.6364 132.753 47.0379 132.389 47.5227C132.026 48 131.507 48.428 130.832 48.8068C130.158 49.178 129.26 49.3636 128.139 49.3636ZM128.503 46.9545C129.579 46.9545 130.488 46.6742 131.23 46.1136C131.973 45.5455 132.537 44.7614 132.923 43.7614C133.31 42.7538 133.503 41.5909 133.503 40.2727C133.503 38.9697 133.313 37.8295 132.935 36.8523C132.556 35.8674 131.995 35.1023 131.253 34.5568C130.51 34.0038 129.594 33.7273 128.503 33.7273C127.366 33.7273 126.42 34.0189 125.662 34.6023C124.912 35.178 124.348 35.9621 123.969 36.9545C123.598 37.9394 123.412 39.0455 123.412 40.2727C123.412 41.5152 123.601 42.6439 123.98 43.6591C124.366 44.6667 124.935 45.4697 125.685 46.0682C126.442 46.6591 127.382 46.9545 128.503 46.9545Z"/>
</mask>
<path d="M74.8182 25.7273H78.1818L86.0909 45.0455H86.3636L94.2727 25.7273H97.6364V49H95V31.3182H94.7727L87.5 49H84.9545L77.6818 31.3182H77.4545V49H74.8182V25.7273ZM110.241 49.3636C108.56 49.3636 107.109 48.9924 105.889 48.25C104.677 47.5 103.741 46.4545 103.082 45.1136C102.431 43.7652 102.105 42.197 102.105 40.4091C102.105 38.6212 102.431 37.0455 103.082 35.6818C103.741 34.3106 104.658 33.2424 105.832 32.4773C107.014 31.7045 108.393 31.3182 109.969 31.3182C110.878 31.3182 111.776 31.4697 112.662 31.7727C113.548 32.0758 114.355 32.5682 115.082 33.25C115.81 33.9242 116.389 34.8182 116.821 35.9318C117.253 37.0455 117.469 38.4167 117.469 40.0455V41.1818H104.014V38.8636H114.741C114.741 37.8788 114.545 37 114.151 36.2273C113.764 35.4545 113.211 34.8447 112.491 34.3977C111.779 33.9508 110.938 33.7273 109.969 33.7273C108.901 33.7273 107.976 33.9924 107.196 34.5227C106.423 35.0455 105.829 35.7273 105.412 36.5682C104.995 37.4091 104.787 38.3106 104.787 39.2727V40.8182C104.787 42.1364 105.014 43.2538 105.469 44.1705C105.931 45.0795 106.571 45.7727 107.389 46.25C108.207 46.7197 109.158 46.9545 110.241 46.9545C110.946 46.9545 111.582 46.8561 112.151 46.6591C112.726 46.4545 113.223 46.1515 113.639 45.75C114.056 45.3409 114.378 44.8333 114.605 44.2273L117.196 44.9545C116.923 45.8333 116.465 46.6061 115.821 47.2727C115.177 47.9318 114.382 48.447 113.435 48.8182C112.488 49.1818 111.423 49.3636 110.241 49.3636ZM128.139 49.3636C126.685 49.3636 125.401 48.9962 124.287 48.2614C123.173 47.5189 122.302 46.4735 121.673 45.125C121.045 43.7689 120.73 42.1667 120.73 40.3182C120.73 38.4848 121.045 36.8939 121.673 35.5455C122.302 34.197 123.177 33.1553 124.298 32.4205C125.42 31.6856 126.715 31.3182 128.185 31.3182C129.321 31.3182 130.219 31.5076 130.878 31.8864C131.545 32.2576 132.052 32.6818 132.401 33.1591C132.757 33.6288 133.033 34.0152 133.23 34.3182H133.457V25.7273H136.139V49H133.548V46.3182H133.23C133.033 46.6364 132.753 47.0379 132.389 47.5227C132.026 48 131.507 48.428 130.832 48.8068C130.158 49.178 129.26 49.3636 128.139 49.3636ZM128.503 46.9545C129.579 46.9545 130.488 46.6742 131.23 46.1136C131.973 45.5455 132.537 44.7614 132.923 43.7614C133.31 42.7538 133.503 41.5909 133.503 40.2727C133.503 38.9697 133.313 37.8295 132.935 36.8523C132.556 35.8674 131.995 35.1023 131.253 34.5568C130.51 34.0038 129.594 33.7273 128.503 33.7273C127.366 33.7273 126.42 34.0189 125.662 34.6023C124.912 35.178 124.348 35.9621 123.969 36.9545C123.598 37.9394 123.412 39.0455 123.412 40.2727C123.412 41.5152 123.601 42.6439 123.98 43.6591C124.366 44.6667 124.935 45.4697 125.685 46.0682C126.442 46.6591 127.382 46.9545 128.503 46.9545Z" fill="white"/>
<path d="M74.8182 25.7273V24.7273H73.8182V25.7273H74.8182ZM78.1818 25.7273L79.1073 25.3484L78.853 24.7273H78.1818V25.7273ZM86.0909 45.0455L85.1655 45.4243L85.4198 46.0455H86.0909V45.0455ZM86.3636 45.0455V46.0455H87.0348L87.2891 45.4243L86.3636 45.0455ZM94.2727 25.7273V24.7273H93.6016L93.3473 25.3484L94.2727 25.7273ZM97.6364 25.7273H98.6364V24.7273H97.6364V25.7273ZM97.6364 49V50H98.6364V49H97.6364ZM95 49H94V50H95V49ZM95 31.3182H96V30.3182H95V31.3182ZM94.7727 31.3182V30.3182H94.1028L93.8479 30.9378L94.7727 31.3182ZM87.5 49V50H88.17L88.4248 49.3804L87.5 49ZM84.9545 49L84.0297 49.3804L84.2846 50H84.9545V49ZM77.6818 31.3182L78.6066 30.9378L78.3518 30.3182H77.6818V31.3182ZM77.4545 31.3182V30.3182H76.4545V31.3182H77.4545ZM77.4545 49V50H78.4545V49H77.4545ZM74.8182 49H73.8182V50H74.8182V49ZM74.8182 25.7273V26.7273H78.1818V25.7273V24.7273H74.8182V25.7273ZM78.1818 25.7273L77.2564 26.1062L85.1655 45.4243L86.0909 45.0455L87.0164 44.6666L79.1073 25.3484L78.1818 25.7273ZM86.0909 45.0455V46.0455H86.3636V45.0455V44.0455H86.0909V45.0455ZM86.3636 45.0455L87.2891 45.4243L95.1982 26.1062L94.2727 25.7273L93.3473 25.3484L85.4382 44.6666L86.3636 45.0455ZM94.2727 25.7273V26.7273H97.6364V25.7273V24.7273H94.2727V25.7273ZM97.6364 25.7273H96.6364V49H97.6364H98.6364V25.7273H97.6364ZM97.6364 49V48H95V49V50H97.6364V49ZM95 49H96V31.3182H95H94V49H95ZM95 31.3182V30.3182H94.7727V31.3182V32.3182H95V31.3182ZM94.7727 31.3182L93.8479 30.9378L86.5752 48.6196L87.5 49L88.4248 49.3804L95.6976 31.6986L94.7727 31.3182ZM87.5 49V48H84.9545V49V50H87.5V49ZM84.9545 49L85.8794 48.6196L78.6066 30.9378L77.6818 31.3182L76.757 31.6986L84.0297 49.3804L84.9545 49ZM77.6818 31.3182V30.3182H77.4545V31.3182V32.3182H77.6818V31.3182ZM77.4545 31.3182H76.4545V49H77.4545H78.4545V31.3182H77.4545ZM77.4545 49V48H74.8182V49V50H77.4545V49ZM74.8182 49H75.8182V25.7273H74.8182H73.8182V49H74.8182ZM105.889 48.25L105.363 49.1004L105.369 49.1042L105.889 48.25ZM103.082 45.1136L102.182 45.5487L102.185 45.5548L103.082 45.1136ZM103.082 35.6818L102.181 35.2486L102.18 35.2507L103.082 35.6818ZM105.832 32.4773L106.378 33.3151L106.38 33.3142L105.832 32.4773ZM112.662 31.7727L112.985 30.8265V30.8265L112.662 31.7727ZM115.082 33.25L114.398 33.9795L114.403 33.9833L115.082 33.25ZM116.821 35.9318L117.753 35.5703V35.5703L116.821 35.9318ZM117.469 41.1818V42.1818H118.469V41.1818H117.469ZM104.014 41.1818H103.014V42.1818H104.014V41.1818ZM104.014 38.8636V37.8636H103.014V38.8636H104.014ZM114.741 38.8636V39.8636H115.741V38.8636H114.741ZM114.151 36.2273L113.256 36.6745L113.26 36.6815L114.151 36.2273ZM112.491 34.3977L111.96 35.2447L111.964 35.2472L112.491 34.3977ZM107.196 34.5227L107.756 35.351L107.758 35.3498L107.196 34.5227ZM105.412 36.5682L104.516 36.1242V36.1242L105.412 36.5682ZM105.469 44.1705L104.573 44.6147L104.577 44.6236L105.469 44.1705ZM107.389 46.25L106.885 47.1138L106.891 47.1173L107.389 46.25ZM112.151 46.6591L112.478 47.604L112.485 47.6014L112.151 46.6591ZM113.639 45.75L114.333 46.4701L114.34 46.4636L113.639 45.75ZM114.605 44.2273L114.875 43.2645L113.991 43.0163L113.669 43.8761L114.605 44.2273ZM117.196 44.9545L118.151 45.2509L118.456 44.2695L117.466 43.9918L117.196 44.9545ZM115.821 47.2727L116.536 47.9716L116.54 47.9675L115.821 47.2727ZM113.435 48.8182L113.793 49.7517L113.8 49.7492L113.435 48.8182ZM110.241 49.3636V48.3636C108.71 48.3636 107.446 48.0271 106.409 47.3958L105.889 48.25L105.369 49.1042C106.772 49.9578 108.409 50.3636 110.241 50.3636V49.3636ZM105.889 48.25L106.415 47.3996C105.371 46.7533 104.56 45.8534 103.98 44.6725L103.082 45.1136L102.185 45.5548C102.923 47.0557 103.983 48.2467 105.363 49.1004L105.889 48.25ZM103.082 45.1136L103.983 44.6786C103.408 43.4896 103.105 42.0752 103.105 40.4091H102.105H101.105C101.105 42.3188 101.453 44.0407 102.182 45.5487L103.082 45.1136ZM102.105 40.4091H103.105C103.105 38.7433 103.408 37.3195 103.985 36.1129L103.082 35.6818L102.18 35.2507C101.454 36.7714 101.105 38.4991 101.105 40.4091H102.105ZM103.082 35.6818L103.984 36.115C104.571 34.8941 105.37 33.9719 106.378 33.3151L105.832 32.4773L105.286 31.6394C103.946 32.5129 102.912 33.7272 102.181 35.2486L103.082 35.6818ZM105.832 32.4773L106.38 33.3142C107.38 32.66 108.564 32.3182 109.969 32.3182V31.3182V30.3182C108.222 30.3182 106.648 30.7491 105.285 31.6403L105.832 32.4773ZM109.969 31.3182V32.3182C110.764 32.3182 111.553 32.4504 112.338 32.719L112.662 31.7727L112.985 30.8265C111.998 30.489 110.991 30.3182 109.969 30.3182V31.3182ZM112.662 31.7727L112.338 32.719C113.082 32.9732 113.768 33.3883 114.398 33.9795L115.082 33.25L115.766 32.5205C114.942 31.748 114.014 31.1783 112.985 30.8265L112.662 31.7727ZM115.082 33.25L114.403 33.9833C114.998 34.5354 115.501 35.2927 115.889 36.2933L116.821 35.9318L117.753 35.5703C117.278 34.3437 116.621 33.313 115.762 32.5167L115.082 33.25ZM116.821 35.9318L115.889 36.2933C116.263 37.2581 116.469 38.4983 116.469 40.0455H117.469H118.469C118.469 38.335 118.243 36.8328 117.753 35.5703L116.821 35.9318ZM117.469 40.0455H116.469V41.1818H117.469H118.469V40.0455H117.469ZM117.469 41.1818V40.1818H104.014V41.1818V42.1818H117.469V41.1818ZM104.014 41.1818H105.014V38.8636H104.014H103.014V41.1818H104.014ZM104.014 38.8636V39.8636H114.741V38.8636V37.8636H104.014V38.8636ZM114.741 38.8636H115.741C115.741 37.7425 115.516 36.7045 115.041 35.7731L114.151 36.2273L113.26 36.6815C113.573 37.2955 113.741 38.0151 113.741 38.8636H114.741ZM114.151 36.2273L115.045 35.7801C114.578 34.8453 113.899 34.0948 113.019 33.5482L112.491 34.3977L111.964 35.2472C112.523 35.5946 112.951 36.0638 113.256 36.6745L114.151 36.2273ZM112.491 34.3977L113.023 33.5507C112.128 32.9892 111.097 32.7273 109.969 32.7273V33.7273V34.7273C110.78 34.7273 111.43 34.9123 111.96 35.2447L112.491 34.3977ZM109.969 33.7273V32.7273C108.728 32.7273 107.601 33.0382 106.634 33.6957L107.196 34.5227L107.758 35.3498C108.351 34.9467 109.074 34.7273 109.969 34.7273V33.7273ZM107.196 34.5227L106.636 33.6944C105.719 34.3147 105.009 35.1293 104.516 36.1242L105.412 36.5682L106.308 37.0122C106.648 36.3253 107.128 35.7762 107.756 35.351L107.196 34.5227ZM105.412 36.5682L104.516 36.1242C104.029 37.1067 103.787 38.1606 103.787 39.2727H104.787H105.787C105.787 38.4606 105.961 37.7115 106.308 37.0122L105.412 36.5682ZM104.787 39.2727H103.787V40.8182H104.787H105.787V39.2727H104.787ZM104.787 40.8182H103.787C103.787 42.2475 104.033 43.526 104.573 44.6147L105.469 44.1705L106.365 43.7262C105.995 42.9815 105.787 42.0252 105.787 40.8182H104.787ZM105.469 44.1705L104.577 44.6236C105.12 45.6903 105.888 46.5322 106.885 47.1138L107.389 46.25L107.893 45.3862C107.254 45.0132 106.742 44.4688 106.36 43.7173L105.469 44.1705ZM107.389 46.25L106.891 47.1173C107.882 47.6861 109.01 47.9545 110.241 47.9545V46.9545V45.9545C109.307 45.9545 108.532 45.7533 107.887 45.3827L107.389 46.25ZM110.241 46.9545V47.9545C111.039 47.9545 111.788 47.8431 112.478 47.6039L112.151 46.6591L111.823 45.7143C111.377 45.869 110.853 45.9545 110.241 45.9545V46.9545ZM112.151 46.6591L112.485 47.6014C113.188 47.3519 113.808 46.9759 114.333 46.4701L113.639 45.75L112.945 45.0299C112.637 45.3272 112.265 45.5572 111.816 45.7168L112.151 46.6591ZM113.639 45.75L114.34 46.4636C114.871 45.9417 115.269 45.3061 115.541 44.5784L114.605 44.2273L113.669 43.8761C113.487 44.3606 113.24 44.7401 112.939 45.0364L113.639 45.75ZM114.605 44.2273L114.335 45.1901L116.926 45.9173L117.196 44.9545L117.466 43.9918L114.875 43.2645L114.605 44.2273ZM117.196 44.9545L116.241 44.6581C116.015 45.3864 115.638 46.023 115.102 46.578L115.821 47.2727L116.54 47.9675C117.292 47.1891 117.832 46.2803 118.151 45.2509L117.196 44.9545ZM115.821 47.2727L115.106 46.5739C114.571 47.1216 113.899 47.5622 113.07 47.8872L113.435 48.8182L113.8 49.7492C114.865 49.3317 115.783 48.7421 116.536 47.9716L115.821 47.2727ZM113.435 48.8182L113.076 47.8846C112.261 48.1977 111.321 48.3636 110.241 48.3636V49.3636V50.3636C111.526 50.3636 112.715 50.1659 113.793 49.7517L113.435 48.8182ZM124.287 48.2614L123.732 49.0934L123.736 49.096L124.287 48.2614ZM121.673 45.125L120.766 45.5457L120.767 45.5476L121.673 45.125ZM121.673 35.5455L120.767 35.1228V35.1228L121.673 35.5455ZM124.298 32.4205L123.75 31.5841V31.5841L124.298 32.4205ZM130.878 31.8864L130.38 32.7535L130.391 32.7601L130.878 31.8864ZM132.401 33.1591L131.593 33.7488L131.598 33.756L131.604 33.7632L132.401 33.1591ZM133.23 34.3182L132.392 34.8632L132.687 35.3182H133.23V34.3182ZM133.457 34.3182V35.3182H134.457V34.3182H133.457ZM133.457 25.7273V24.7273H132.457V25.7273H133.457ZM136.139 25.7273H137.139V24.7273H136.139V25.7273ZM136.139 49V50H137.139V49H136.139ZM133.548 49H132.548V50H133.548V49ZM133.548 46.3182H134.548V45.3182H133.548V46.3182ZM133.23 46.3182V45.3182H132.673L132.38 45.7918L133.23 46.3182ZM132.389 47.5227L133.185 48.1288L133.189 48.1227L132.389 47.5227ZM130.832 48.8068L131.315 49.6829L131.322 49.6787L130.832 48.8068ZM131.23 46.1136L131.833 46.9117L131.838 46.9078L131.23 46.1136ZM132.923 43.7614L133.856 44.1218L133.857 44.1194L132.923 43.7614ZM132.935 36.8523L132.001 37.2113L132.002 37.2137L132.935 36.8523ZM131.253 34.5568L130.655 35.3588L130.661 35.3627L131.253 34.5568ZM125.662 34.6023L126.271 35.3955L126.272 35.3946L125.662 34.6023ZM123.969 36.9545L123.034 36.598L123.033 36.6018L123.969 36.9545ZM123.98 43.6591L123.043 44.0087L123.046 44.0171L123.98 43.6591ZM125.685 46.0682L125.061 46.8499L125.07 46.8567L125.685 46.0682ZM128.139 49.3636V48.3636C126.862 48.3636 125.773 48.044 124.838 47.4267L124.287 48.2614L123.736 49.096C125.028 49.9484 126.507 50.3636 128.139 50.3636V49.3636ZM124.287 48.2614L124.842 47.4293C123.897 46.7996 123.14 45.9038 122.58 44.7024L121.673 45.125L120.767 45.5476C121.464 47.0431 122.449 48.2382 123.732 49.0934L124.287 48.2614ZM121.673 45.125L122.581 44.7043C122.026 43.5075 121.73 42.0549 121.73 40.3182H120.73H119.73C119.73 42.2784 120.063 44.0304 120.766 45.5457L121.673 45.125ZM120.73 40.3182H121.73C121.73 38.5977 122.025 37.1572 122.58 35.9681L121.673 35.5455L120.767 35.1228C120.064 36.6307 119.73 38.3719 119.73 40.3182H120.73ZM121.673 35.5455L122.58 35.9681C123.139 34.769 123.898 33.8788 124.846 33.2568L124.298 32.4205L123.75 31.5841C122.457 32.4318 121.465 33.6249 120.767 35.1228L121.673 35.5455ZM124.298 32.4205L124.846 33.2568C125.789 32.639 126.89 32.3182 128.185 32.3182V31.3182V30.3182C126.54 30.3182 125.05 30.7323 123.75 31.5841L124.298 32.4205ZM128.185 31.3182V32.3182C129.226 32.3182 129.929 32.4945 130.38 32.7534L130.878 31.8864L131.376 31.0194C130.508 30.5207 129.416 30.3182 128.185 30.3182V31.3182ZM130.878 31.8864L130.391 32.7601C130.967 33.0806 131.351 33.4171 131.593 33.7488L132.401 33.1591L133.208 32.5694C132.753 31.9466 132.122 31.4345 131.364 31.0127L130.878 31.8864ZM132.401 33.1591L131.604 33.7632C131.953 34.224 132.213 34.5889 132.392 34.8632L133.23 34.3182L134.069 33.7732C133.853 33.4414 133.56 33.0336 133.197 32.555L132.401 33.1591ZM133.23 34.3182V35.3182H133.457V34.3182V33.3182H133.23V34.3182ZM133.457 34.3182H134.457V25.7273H133.457H132.457V34.3182H133.457ZM133.457 25.7273V26.7273H136.139V25.7273V24.7273H133.457V25.7273ZM136.139 25.7273H135.139V49H136.139H137.139V25.7273H136.139ZM136.139 49V48H133.548V49V50H136.139V49ZM133.548 49H134.548V46.3182H133.548H132.548V49H133.548ZM133.548 46.3182V45.3182H133.23V46.3182V47.3182H133.548V46.3182ZM133.23 46.3182L132.38 45.7918C132.205 46.0742 131.944 46.4491 131.589 46.9227L132.389 47.5227L133.189 48.1227C133.561 47.6267 133.861 47.1986 134.08 46.8445L133.23 46.3182ZM132.389 47.5227L131.594 46.9167C131.333 47.259 130.931 47.6045 130.343 47.935L130.832 48.8068L131.322 49.6787C132.082 49.2515 132.718 48.741 133.185 48.1288L132.389 47.5227ZM130.832 48.8068L130.35 47.9308C129.876 48.1919 129.164 48.3636 128.139 48.3636V49.3636V50.3636C129.357 50.3636 130.44 50.1641 131.315 49.6828L130.832 48.8068ZM128.503 46.9545V47.9545C129.761 47.9545 130.89 47.6232 131.833 46.9117L131.23 46.1136L130.628 45.3156C130.085 45.7253 129.397 45.9545 128.503 45.9545V46.9545ZM131.23 46.1136L131.838 46.9078C132.747 46.212 133.413 45.2678 133.856 44.1218L132.923 43.7614L131.99 43.401C131.661 44.2549 131.198 44.8789 130.622 45.3195L131.23 46.1136ZM132.923 43.7614L133.857 44.1194C134.296 42.9753 134.503 41.687 134.503 40.2727H133.503H132.503C132.503 41.4948 132.324 42.5322 131.99 43.4033L132.923 43.7614ZM133.503 40.2727H134.503C134.503 38.8751 134.3 37.6077 133.867 36.4909L132.935 36.8523L132.002 37.2137C132.327 38.0514 132.503 39.0643 132.503 40.2727H133.503ZM132.935 36.8523L133.868 36.4933C133.431 35.3565 132.763 34.4254 131.845 33.7509L131.253 34.5568L130.661 35.3627C131.228 35.7791 131.681 36.3783 132.001 37.2113L132.935 36.8523ZM131.253 34.5568L131.85 33.7549C130.906 33.0514 129.769 32.7273 128.503 32.7273V33.7273V34.7273C129.418 34.7273 130.115 34.9562 130.655 35.3588L131.253 34.5568ZM128.503 33.7273V32.7273C127.189 32.7273 126.016 33.0679 125.052 33.8099L125.662 34.6023L126.272 35.3946C126.823 34.97 127.544 34.7273 128.503 34.7273V33.7273ZM125.662 34.6023L125.053 33.8091C124.139 34.5109 123.471 35.4546 123.034 36.598L123.969 36.9545L124.903 37.3111C125.224 36.4696 125.685 35.8451 126.271 35.3955L125.662 34.6023ZM123.969 36.9545L123.033 36.6018C122.613 37.7165 122.412 38.9446 122.412 40.2727H123.412H124.412C124.412 39.1463 124.582 38.1623 124.904 37.3072L123.969 36.9545ZM123.412 40.2727H122.412C122.412 41.6172 122.617 42.8666 123.043 44.0087L123.98 43.6591L124.917 43.3095C124.586 42.4213 124.412 41.4131 124.412 40.2727H123.412ZM123.98 43.6591L123.046 44.0171C123.488 45.1698 124.155 46.1269 125.061 46.8498L125.685 46.0682L126.308 45.2865C125.714 44.8125 125.245 44.1635 124.914 43.3011L123.98 43.6591ZM125.685 46.0682L125.07 46.8567C126.031 47.6067 127.198 47.9545 128.503 47.9545V46.9545V45.9545C127.566 45.9545 126.853 45.7114 126.3 45.2797L125.685 46.0682Z" fill="white" mask="url(#path-4-outside-1_1534_2)"/>
</g>
<g filter="url(#filter1_d_1534_2)">
<mask id="path-6-outside-2_1534_2" maskUnits="userSpaceOnUse" x="74" y="49" width="55" height="27" fill="black">
<rect fill="white" x="74" y="49" width="55" height="27"/>
<path d="M86.4545 66.8636V56.5455H89.1364V74H86.4545V71.0455H86.2727C85.8636 71.9318 85.2273 72.6856 84.3636 73.3068C83.5 73.9205 82.4091 74.2273 81.0909 74.2273C80 74.2273 79.0303 73.9886 78.1818 73.5114C77.3333 73.0265 76.6667 72.2992 76.1818 71.3295C75.697 70.3523 75.4545 69.1212 75.4545 67.6364V56.5455H78.1364V67.4545C78.1364 68.7273 78.4924 69.7424 79.2045 70.5C79.9242 71.2576 80.8409 71.6364 81.9545 71.6364C82.6212 71.6364 83.2992 71.4659 83.9886 71.125C84.6856 70.7841 85.2689 70.2614 85.7386 69.5568C86.2159 68.8523 86.4545 67.9545 86.4545 66.8636ZM94.0483 74V56.5455H96.7301V74H94.0483ZM95.4119 53.6364C94.8892 53.6364 94.4384 53.4583 94.0597 53.1023C93.6884 52.7462 93.5028 52.3182 93.5028 51.8182C93.5028 51.3182 93.6884 50.8902 94.0597 50.5341C94.4384 50.178 94.8892 50 95.4119 50C95.9347 50 96.3816 50.178 96.7528 50.5341C97.1316 50.8902 97.321 51.3182 97.321 51.8182C97.321 52.3182 97.1316 52.7462 96.7528 53.1023C96.3816 53.4583 95.9347 53.6364 95.4119 53.6364ZM101.642 74V56.5455H104.233V59.1818H104.415C104.733 58.3182 105.309 57.6174 106.142 57.0795C106.975 56.5417 107.915 56.2727 108.96 56.2727C109.157 56.2727 109.403 56.2765 109.699 56.2841C109.994 56.2917 110.218 56.303 110.369 56.3182V59.0455C110.278 59.0227 110.07 58.9886 109.744 58.9432C109.426 58.8902 109.089 58.8636 108.733 58.8636C107.884 58.8636 107.127 59.0417 106.46 59.3977C105.801 59.7462 105.278 60.2311 104.892 60.8523C104.513 61.4659 104.324 62.1667 104.324 62.9545V74H101.642ZM120.335 74.3636C118.653 74.3636 117.203 73.9924 115.983 73.25C114.771 72.5 113.835 71.4545 113.176 70.1136C112.525 68.7652 112.199 67.197 112.199 65.4091C112.199 63.6212 112.525 62.0455 113.176 60.6818C113.835 59.3106 114.752 58.2424 115.926 57.4773C117.108 56.7045 118.487 56.3182 120.062 56.3182C120.972 56.3182 121.869 56.4697 122.756 56.7727C123.642 57.0758 124.449 57.5682 125.176 58.25C125.903 58.9242 126.483 59.8182 126.915 60.9318C127.347 62.0455 127.562 63.4167 127.562 65.0455V66.1818H114.108V63.8636H124.835C124.835 62.8788 124.638 62 124.244 61.2273C123.858 60.4545 123.305 59.8447 122.585 59.3977C121.873 58.9508 121.032 58.7273 120.062 58.7273C118.994 58.7273 118.07 58.9924 117.29 59.5227C116.517 60.0455 115.922 60.7273 115.506 61.5682C115.089 62.4091 114.881 63.3106 114.881 64.2727V65.8182C114.881 67.1364 115.108 68.2538 115.562 69.1705C116.025 70.0795 116.665 70.7727 117.483 71.25C118.301 71.7197 119.252 71.9545 120.335 71.9545C121.04 71.9545 121.676 71.8561 122.244 71.6591C122.82 71.4545 123.316 71.1515 123.733 70.75C124.15 70.3409 124.472 69.8333 124.699 69.2273L127.29 69.9545C127.017 70.8333 126.559 71.6061 125.915 72.2727C125.271 72.9318 124.475 73.447 123.528 73.8182C122.581 74.1818 121.517 74.3636 120.335 74.3636Z"/>
</mask>
<path d="M86.4545 66.8636V56.5455H89.1364V74H86.4545V71.0455H86.2727C85.8636 71.9318 85.2273 72.6856 84.3636 73.3068C83.5 73.9205 82.4091 74.2273 81.0909 74.2273C80 74.2273 79.0303 73.9886 78.1818 73.5114C77.3333 73.0265 76.6667 72.2992 76.1818 71.3295C75.697 70.3523 75.4545 69.1212 75.4545 67.6364V56.5455H78.1364V67.4545C78.1364 68.7273 78.4924 69.7424 79.2045 70.5C79.9242 71.2576 80.8409 71.6364 81.9545 71.6364C82.6212 71.6364 83.2992 71.4659 83.9886 71.125C84.6856 70.7841 85.2689 70.2614 85.7386 69.5568C86.2159 68.8523 86.4545 67.9545 86.4545 66.8636ZM94.0483 74V56.5455H96.7301V74H94.0483ZM95.4119 53.6364C94.8892 53.6364 94.4384 53.4583 94.0597 53.1023C93.6884 52.7462 93.5028 52.3182 93.5028 51.8182C93.5028 51.3182 93.6884 50.8902 94.0597 50.5341C94.4384 50.178 94.8892 50 95.4119 50C95.9347 50 96.3816 50.178 96.7528 50.5341C97.1316 50.8902 97.321 51.3182 97.321 51.8182C97.321 52.3182 97.1316 52.7462 96.7528 53.1023C96.3816 53.4583 95.9347 53.6364 95.4119 53.6364ZM101.642 74V56.5455H104.233V59.1818H104.415C104.733 58.3182 105.309 57.6174 106.142 57.0795C106.975 56.5417 107.915 56.2727 108.96 56.2727C109.157 56.2727 109.403 56.2765 109.699 56.2841C109.994 56.2917 110.218 56.303 110.369 56.3182V59.0455C110.278 59.0227 110.07 58.9886 109.744 58.9432C109.426 58.8902 109.089 58.8636 108.733 58.8636C107.884 58.8636 107.127 59.0417 106.46 59.3977C105.801 59.7462 105.278 60.2311 104.892 60.8523C104.513 61.4659 104.324 62.1667 104.324 62.9545V74H101.642ZM120.335 74.3636C118.653 74.3636 117.203 73.9924 115.983 73.25C114.771 72.5 113.835 71.4545 113.176 70.1136C112.525 68.7652 112.199 67.197 112.199 65.4091C112.199 63.6212 112.525 62.0455 113.176 60.6818C113.835 59.3106 114.752 58.2424 115.926 57.4773C117.108 56.7045 118.487 56.3182 120.062 56.3182C120.972 56.3182 121.869 56.4697 122.756 56.7727C123.642 57.0758 124.449 57.5682 125.176 58.25C125.903 58.9242 126.483 59.8182 126.915 60.9318C127.347 62.0455 127.562 63.4167 127.562 65.0455V66.1818H114.108V63.8636H124.835C124.835 62.8788 124.638 62 124.244 61.2273C123.858 60.4545 123.305 59.8447 122.585 59.3977C121.873 58.9508 121.032 58.7273 120.062 58.7273C118.994 58.7273 118.07 58.9924 117.29 59.5227C116.517 60.0455 115.922 60.7273 115.506 61.5682C115.089 62.4091 114.881 63.3106 114.881 64.2727V65.8182C114.881 67.1364 115.108 68.2538 115.562 69.1705C116.025 70.0795 116.665 70.7727 117.483 71.25C118.301 71.7197 119.252 71.9545 120.335 71.9545C121.04 71.9545 121.676 71.8561 122.244 71.6591C122.82 71.4545 123.316 71.1515 123.733 70.75C124.15 70.3409 124.472 69.8333 124.699 69.2273L127.29 69.9545C127.017 70.8333 126.559 71.6061 125.915 72.2727C125.271 72.9318 124.475 73.447 123.528 73.8182C122.581 74.1818 121.517 74.3636 120.335 74.3636Z" fill="#185BF1"/>
<path d="M86.4545 56.5455V55.5455H85.4545V56.5455H86.4545ZM89.1364 56.5455H90.1364V55.5455H89.1364V56.5455ZM89.1364 74V75H90.1364V74H89.1364ZM86.4545 74H85.4545V75H86.4545V74ZM86.4545 71.0455H87.4545V70.0455H86.4545V71.0455ZM86.2727 71.0455V70.0455H85.6329L85.3648 70.6264L86.2727 71.0455ZM84.3636 73.3068L84.9429 74.122L84.9476 74.1186L84.3636 73.3068ZM78.1818 73.5114L77.6857 74.3796L77.6916 74.3829L78.1818 73.5114ZM76.1818 71.3295L75.286 71.774L75.2874 71.7768L76.1818 71.3295ZM75.4545 56.5455V55.5455H74.4545V56.5455H75.4545ZM78.1364 56.5455H79.1364V55.5455H78.1364V56.5455ZM79.2045 70.5L78.4759 71.1849L78.4795 71.1887L79.2045 70.5ZM83.9886 71.125L83.5492 70.2267L83.5454 70.2286L83.9886 71.125ZM85.7386 69.5568L84.9107 68.996L84.9066 69.0021L85.7386 69.5568ZM86.4545 66.8636H87.4545V56.5455H86.4545H85.4545V66.8636H86.4545ZM86.4545 56.5455V57.5455H89.1364V56.5455V55.5455H86.4545V56.5455ZM89.1364 56.5455H88.1364V74H89.1364H90.1364V56.5455H89.1364ZM89.1364 74V73H86.4545V74V75H89.1364V74ZM86.4545 74H87.4545V71.0455H86.4545H85.4545V74H86.4545ZM86.4545 71.0455V70.0455H86.2727V71.0455V72.0455H86.4545V71.0455ZM86.2727 71.0455L85.3648 70.6264C85.0344 71.3422 84.5162 71.9653 83.7797 72.495L84.3636 73.3068L84.9476 74.1186C85.9384 73.4059 86.6929 72.5214 87.1807 71.4645L86.2727 71.0455ZM84.3636 73.3068L83.7844 72.4916C83.1274 72.9584 82.2527 73.2273 81.0909 73.2273V74.2273V75.2273C82.5655 75.2273 83.8726 74.8825 84.9428 74.122L84.3636 73.3068ZM81.0909 74.2273V73.2273C80.1506 73.2273 79.3535 73.0231 78.6721 72.6398L78.1818 73.5114L77.6916 74.3829C78.7071 74.9542 79.8494 75.2273 81.0909 75.2273V74.2273ZM78.1818 73.5114L78.678 72.6431C78.0194 72.2668 77.4828 71.6955 77.0762 70.8823L76.1818 71.3295L75.2874 71.7768C75.8505 72.903 76.6473 73.7862 77.6857 74.3796L78.1818 73.5114ZM76.1818 71.3295L77.0776 70.8851C76.6815 70.0866 76.4545 69.0198 76.4545 67.6364H75.4545H74.4545C74.4545 69.2226 74.7125 70.618 75.286 71.774L76.1818 71.3295ZM75.4545 67.6364H76.4545V56.5455H75.4545H74.4545V67.6364H75.4545ZM75.4545 56.5455V57.5455H78.1364V56.5455V55.5455H75.4545V56.5455ZM78.1364 56.5455H77.1364V67.4545H78.1364H79.1364V56.5455H78.1364ZM78.1364 67.4545H77.1364C77.1364 68.9217 77.5523 70.2023 78.4759 71.1849L79.2045 70.5L79.9332 69.8151C79.4326 69.2825 79.1364 68.5328 79.1364 67.4545H78.1364ZM79.2045 70.5L78.4795 71.1887C79.4015 72.1592 80.5869 72.6364 81.9545 72.6364V71.6364V70.6364C81.0949 70.6364 80.447 70.356 79.9295 69.8113L79.2045 70.5ZM81.9545 71.6364V72.6364C82.797 72.6364 83.6259 72.42 84.4319 72.0214L83.9886 71.125L83.5454 70.2286C82.9726 70.5118 82.4454 70.6364 81.9545 70.6364V71.6364ZM83.9886 71.125L84.428 72.0233C85.2983 71.5976 86.0121 70.9495 86.5707 70.1115L85.7386 69.5568L84.9066 69.0021C84.5258 69.5733 84.0729 69.9706 83.5493 70.2267L83.9886 71.125ZM85.7386 69.5568L86.5666 70.1177C87.1838 69.2065 87.4545 68.0984 87.4545 66.8636H86.4545H85.4545C85.4545 67.8107 85.248 68.498 84.9107 68.996L85.7386 69.5568ZM94.0483 74H93.0483V75H94.0483V74ZM94.0483 56.5455V55.5455H93.0483V56.5455H94.0483ZM96.7301 56.5455H97.7301V55.5455H96.7301V56.5455ZM96.7301 74V75H97.7301V74H96.7301ZM94.0597 53.1023L93.3674 53.824L93.3747 53.8309L94.0597 53.1023ZM94.0597 50.5341L93.3747 49.8054L93.3674 49.8124L94.0597 50.5341ZM96.7528 50.5341L96.0606 51.2558L96.0679 51.2627L96.7528 50.5341ZM96.7528 53.1023L96.0679 52.3736L96.0606 52.3806L96.7528 53.1023ZM94.0483 74H95.0483V56.5455H94.0483H93.0483V74H94.0483ZM94.0483 56.5455V57.5455H96.7301V56.5455V55.5455H94.0483V56.5455ZM96.7301 56.5455H95.7301V74H96.7301H97.7301V56.5455H96.7301ZM96.7301 74V73H94.0483V74V75H96.7301V74ZM95.4119 53.6364V52.6364C95.1422 52.6364 94.9368 52.5543 94.7446 52.3736L94.0597 53.1023L93.3747 53.8309C93.9401 54.3624 94.6362 54.6364 95.4119 54.6364V53.6364ZM94.0597 53.1023L94.7519 52.3806C94.5709 52.207 94.5028 52.037 94.5028 51.8182H93.5028H92.5028C92.5028 52.5993 92.806 53.2854 93.3674 53.824L94.0597 53.1023ZM93.5028 51.8182H94.5028C94.5028 51.5993 94.5709 51.4293 94.7519 51.2558L94.0597 50.5341L93.3674 49.8124C92.806 50.351 92.5028 51.037 92.5028 51.8182H93.5028ZM94.0597 50.5341L94.7446 51.2627C94.9368 51.082 95.1422 51 95.4119 51V50V49C94.6362 49 93.9401 49.274 93.3748 49.8055L94.0597 50.5341ZM95.4119 50V51C95.6813 51 95.8789 51.0815 96.0606 51.2558L96.7528 50.5341L97.4451 49.8124C96.8843 49.2745 96.188 49 95.4119 49V50ZM96.7528 50.5341L96.0679 51.2627C96.2547 51.4382 96.321 51.6062 96.321 51.8182H97.321H98.321C98.321 51.0301 98.0086 50.3421 97.4378 49.8055L96.7528 50.5341ZM97.321 51.8182H96.321C96.321 52.0301 96.2547 52.1981 96.0679 52.3736L96.7528 53.1023L97.4377 53.8309C98.0086 53.2943 98.321 52.6062 98.321 51.8182H97.321ZM96.7528 53.1023L96.0606 52.3806C95.8789 52.5548 95.6813 52.6364 95.4119 52.6364V53.6364V54.6364C96.188 54.6364 96.8843 54.3618 97.4451 53.824L96.7528 53.1023ZM101.642 74H100.642V75H101.642V74ZM101.642 56.5455V55.5455H100.642V56.5455H101.642ZM104.233 56.5455H105.233V55.5455H104.233V56.5455ZM104.233 59.1818H103.233V60.1818H104.233V59.1818ZM104.415 59.1818V60.1818H105.112L105.353 59.5275L104.415 59.1818ZM106.142 57.0795L105.6 56.2394L105.6 56.2394L106.142 57.0795ZM110.369 56.3182H111.369V55.4132L110.469 55.3231L110.369 56.3182ZM110.369 59.0455L110.127 60.0156L111.369 60.3262V59.0455H110.369ZM109.744 58.9432L109.58 59.9296L109.593 59.9318L109.606 59.9336L109.744 58.9432ZM106.46 59.3977L106.928 60.2818L106.931 60.2798L106.46 59.3977ZM104.892 60.8523L104.043 60.3241L104.041 60.327L104.892 60.8523ZM104.324 74V75H105.324V74H104.324ZM101.642 74H102.642V56.5455H101.642H100.642V74H101.642ZM101.642 56.5455V57.5455H104.233V56.5455V55.5455H101.642V56.5455ZM104.233 56.5455H103.233V59.1818H104.233H105.233V56.5455H104.233ZM104.233 59.1818V60.1818H104.415V59.1818V58.1818H104.233V59.1818ZM104.415 59.1818L105.353 59.5275C105.59 58.8834 106.018 58.3498 106.684 57.9197L106.142 57.0795L105.6 56.2394C104.599 56.8851 103.875 57.7529 103.476 58.8361L104.415 59.1818ZM106.142 57.0795L106.684 57.9197C107.347 57.4919 108.096 57.2727 108.96 57.2727V56.2727V55.2727C107.733 55.2727 106.604 55.5914 105.6 56.2394L106.142 57.0795ZM108.96 56.2727V57.2727C109.146 57.2727 109.383 57.2763 109.673 57.2838L109.699 56.2841L109.724 55.2844C109.424 55.2767 109.169 55.2727 108.96 55.2727V56.2727ZM109.699 56.2841L109.673 57.2838C109.962 57.2912 110.156 57.3018 110.27 57.3132L110.369 56.3182L110.469 55.3231C110.28 55.3042 110.026 55.2922 109.724 55.2844L109.699 56.2841ZM110.369 56.3182H109.369V59.0455H110.369H111.369V56.3182H110.369ZM110.369 59.0455L110.612 58.0753C110.459 58.0371 110.193 57.9961 109.883 57.9528L109.744 58.9432L109.606 59.9336C109.765 59.9558 109.89 59.9744 109.983 59.9897C110.03 59.9973 110.066 60.0037 110.093 60.0087C110.121 60.0142 110.13 60.0165 110.127 60.0156L110.369 59.0455ZM109.744 58.9432L109.909 57.9568C109.531 57.8938 109.138 57.8636 108.733 57.8636V58.8636V59.8636C109.04 59.8636 109.321 59.8865 109.58 59.9296L109.744 58.9432ZM108.733 58.8636V57.8636C107.741 57.8636 106.818 58.0731 105.989 58.5157L106.46 59.3977L106.931 60.2798C107.436 60.0103 108.028 59.8636 108.733 59.8636V58.8636ZM106.46 59.3977L105.993 58.5137C105.18 58.9433 104.525 59.5496 104.043 60.3241L104.892 60.8523L105.741 61.3804C106.032 60.9125 106.422 60.5492 106.928 60.2818L106.46 59.3977ZM104.892 60.8523L104.041 60.327C103.556 61.113 103.324 61.9989 103.324 62.9545H104.324H105.324C105.324 62.3344 105.471 61.8188 105.743 61.3775L104.892 60.8523ZM104.324 62.9545H103.324V74H104.324H105.324V62.9545H104.324ZM104.324 74V73H101.642V74V75H104.324V74ZM115.983 73.25L115.457 74.1004L115.463 74.1042L115.983 73.25ZM113.176 70.1136L112.276 70.5487L112.279 70.5548L113.176 70.1136ZM113.176 60.6818L112.275 60.2486L112.274 60.2507L113.176 60.6818ZM115.926 57.4773L116.472 58.3151L116.473 58.3142L115.926 57.4773ZM122.756 56.7727L123.079 55.8265V55.8265L122.756 56.7727ZM125.176 58.25L124.492 58.9795L124.496 58.9833L125.176 58.25ZM126.915 60.9318L127.847 60.5703V60.5703L126.915 60.9318ZM127.562 66.1818V67.1818H128.562V66.1818H127.562ZM114.108 66.1818H113.108V67.1818H114.108V66.1818ZM114.108 63.8636V62.8636H113.108V63.8636H114.108ZM124.835 63.8636V64.8636H125.835V63.8636H124.835ZM124.244 61.2273L123.35 61.6745L123.353 61.6815L124.244 61.2273ZM122.585 59.3977L122.054 60.2447L122.058 60.2472L122.585 59.3977ZM117.29 59.5227L117.85 60.351L117.852 60.3498L117.29 59.5227ZM115.506 61.5682L114.61 61.1242V61.1242L115.506 61.5682ZM115.562 69.1705L114.667 69.6147L114.671 69.6236L115.562 69.1705ZM117.483 71.25L116.979 72.1138L116.985 72.1173L117.483 71.25ZM122.244 71.6591L122.572 72.604L122.579 72.6014L122.244 71.6591ZM123.733 70.75L124.427 71.4701L124.434 71.4636L123.733 70.75ZM124.699 69.2273L124.969 68.2645L124.085 68.0163L123.763 68.8761L124.699 69.2273ZM127.29 69.9545L128.245 70.2509L128.549 69.2695L127.56 68.9918L127.29 69.9545ZM125.915 72.2727L126.63 72.9716L126.634 72.9675L125.915 72.2727ZM123.528 73.8182L123.887 74.7517L123.893 74.7492L123.528 73.8182ZM120.335 74.3636V73.3636C118.804 73.3636 117.54 73.0271 116.503 72.3958L115.983 73.25L115.463 74.1042C116.865 74.9578 118.503 75.3636 120.335 75.3636V74.3636ZM115.983 73.25L116.509 72.3996C115.465 71.7533 114.654 70.8534 114.074 69.6725L113.176 70.1136L112.279 70.5548C113.016 72.0557 114.077 73.2467 115.457 74.1004L115.983 73.25ZM113.176 70.1136L114.077 69.6786C113.502 68.4896 113.199 67.0752 113.199 65.4091H112.199H111.199C111.199 67.3188 111.547 69.0407 112.276 70.5487L113.176 70.1136ZM112.199 65.4091H113.199C113.199 63.7433 113.502 62.3195 114.078 61.1129L113.176 60.6818L112.274 60.2507C111.547 61.7714 111.199 63.4991 111.199 65.4091H112.199ZM113.176 60.6818L114.077 61.115C114.664 59.8941 115.464 58.9719 116.472 58.3151L115.926 57.4773L115.38 56.6394C114.04 57.5129 113.006 58.7272 112.275 60.2486L113.176 60.6818ZM115.926 57.4773L116.473 58.3142C117.474 57.66 118.658 57.3182 120.062 57.3182V56.3182V55.3182C118.316 55.3182 116.742 55.7491 115.379 56.6403L115.926 57.4773ZM120.062 56.3182V57.3182C120.858 57.3182 121.647 57.4504 122.432 57.719L122.756 56.7727L123.079 55.8265C122.092 55.489 121.085 55.3182 120.062 55.3182V56.3182ZM122.756 56.7727L122.432 57.719C123.176 57.9732 123.862 58.3883 124.492 58.9795L125.176 58.25L125.86 57.5205C125.036 56.748 124.108 56.1783 123.079 55.8265L122.756 56.7727ZM125.176 58.25L124.496 58.9833C125.092 59.5354 125.594 60.2927 125.982 61.2933L126.915 60.9318L127.847 60.5703C127.372 59.3437 126.715 58.313 125.856 57.5167L125.176 58.25ZM126.915 60.9318L125.982 61.2933C126.356 62.2581 126.562 63.4983 126.562 65.0455H127.562H128.562C128.562 63.335 128.337 61.8328 127.847 60.5703L126.915 60.9318ZM127.562 65.0455H126.562V66.1818H127.562H128.562V65.0455H127.562ZM127.562 66.1818V65.1818H114.108V66.1818V67.1818H127.562V66.1818ZM114.108 66.1818H115.108V63.8636H114.108H113.108V66.1818H114.108ZM114.108 63.8636V64.8636H124.835V63.8636V62.8636H114.108V63.8636ZM124.835 63.8636H125.835C125.835 62.7425 125.61 61.7045 125.135 60.7731L124.244 61.2273L123.353 61.6815C123.666 62.2955 123.835 63.0151 123.835 63.8636H124.835ZM124.244 61.2273L125.139 60.7801C124.671 59.8453 123.993 59.0948 123.113 58.5482L122.585 59.3977L122.058 60.2472C122.617 60.5946 123.045 61.0638 123.35 61.6745L124.244 61.2273ZM122.585 59.3977L123.117 58.5507C122.222 57.9892 121.191 57.7273 120.062 57.7273V58.7273V59.7273C120.874 59.7273 121.524 59.9123 122.054 60.2447L122.585 59.3977ZM120.062 58.7273V57.7273C118.821 57.7273 117.695 58.0382 116.728 58.6957L117.29 59.5227L117.852 60.3498C118.445 59.9467 119.167 59.7273 120.062 59.7273V58.7273ZM117.29 59.5227L116.729 58.6944C115.813 59.3147 115.103 60.1293 114.61 61.1242L115.506 61.5682L116.402 62.0122C116.742 61.3253 117.222 60.7762 117.85 60.351L117.29 59.5227ZM115.506 61.5682L114.61 61.1242C114.123 62.1067 113.881 63.1606 113.881 64.2727H114.881H115.881C115.881 63.4606 116.055 62.7115 116.402 62.0122L115.506 61.5682ZM114.881 64.2727H113.881V65.8182H114.881H115.881V64.2727H114.881ZM114.881 65.8182H113.881C113.881 67.2475 114.127 68.526 114.667 69.6147L115.562 69.1705L116.458 68.7262C116.089 67.9815 115.881 67.0252 115.881 65.8182H114.881ZM115.562 69.1705L114.671 69.6236C115.213 70.6903 115.982 71.5322 116.979 72.1138L117.483 71.25L117.987 70.3862C117.347 70.0132 116.836 69.4688 116.454 68.7173L115.562 69.1705ZM117.483 71.25L116.985 72.1173C117.976 72.6861 119.103 72.9545 120.335 72.9545V71.9545V70.9545C119.4 70.9545 118.626 70.7533 117.981 70.3827L117.483 71.25ZM120.335 71.9545V72.9545C121.133 72.9545 121.882 72.8431 122.572 72.6039L122.244 71.6591L121.917 70.7143C121.47 70.869 120.947 70.9545 120.335 70.9545V71.9545ZM122.244 71.6591L122.579 72.6014C123.281 72.3519 123.902 71.9759 124.427 71.4701L123.733 70.75L123.039 70.0299C122.731 70.3272 122.359 70.5572 121.91 70.7168L122.244 71.6591ZM123.733 70.75L124.434 71.4636C124.965 70.9417 125.362 70.3061 125.635 69.5784L124.699 69.2273L123.763 68.8761C123.581 69.3606 123.334 69.7401 123.032 70.0364L123.733 70.75ZM124.699 69.2273L124.429 70.1901L127.02 70.9173L127.29 69.9545L127.56 68.9918L124.969 68.2645L124.699 69.2273ZM127.29 69.9545L126.335 69.6581C126.109 70.3864 125.732 71.023 125.196 71.578L125.915 72.2727L126.634 72.9675C127.386 72.1891 127.925 71.2803 128.245 70.2509L127.29 69.9545ZM125.915 72.2727L125.199 71.5739C124.664 72.1216 123.992 72.5622 123.163 72.8872L123.528 73.8182L123.893 74.7492C124.958 74.3317 125.877 73.7421 126.63 72.9716L125.915 72.2727ZM123.528 73.8182L123.17 72.8846C122.355 73.1977 121.414 73.3636 120.335 73.3636V74.3636V75.3636C121.62 75.3636 122.808 75.1659 123.887 74.7517L123.528 73.8182Z" fill="#2E56AD" mask="url(#path-6-outside-2_1534_2)"/>
</g>
<defs>
<filter id="filter0_d_1534_2" x="69.8182" y="22.2273" width="71.321" height="33.6364" filterUnits="userSpaceOnUse" color-interpolation-filters="sRGB">
<feFlood flood-opacity="0" result="BackgroundImageFix"/>
<feColorMatrix in="SourceAlpha" type="matrix" values="0 0 0 0 0 0 0 0 0 0 0 0 0 0 0 0 0 0 127 0" result="hardAlpha"/>
<feOffset dy="1.5"/>
<feGaussianBlur stdDeviation="2"/>
<feComposite in2="hardAlpha" operator="out"/>
<feColorMatrix type="matrix" values="0 0 0 0 0 0 0 0 0 0 0 0 0 0 0 0 0 0 0.25 0"/>
<feBlend mode="normal" in2="BackgroundImageFix" result="effect1_dropShadow_1534_2"/>
<feBlend mode="normal" in="SourceGraphic" in2="effect1_dropShadow_1534_2" result="shape"/>
</filter>
<filter id="filter1_d_1534_2" x="70.4545" y="46" width="62.108" height="34.3636" filterUnits="userSpaceOnUse" color-interpolation-filters="sRGB">
<feFlood flood-opacity="0" result="BackgroundImageFix"/>
<feColorMatrix in="SourceAlpha" type="matrix" values="0 0 0 0 0 0 0 0 0 0 0 0 0 0 0 0 0 0 127 0" result="hardAlpha"/>
<feOffset dy="1"/>
<feGaussianBlur stdDeviation="2"/>
<feComposite in2="hardAlpha" operator="out"/>
<feColorMatrix type="matrix" values="0 0 0 0 0 0 0 0 0 0 0 0 0 0 0 0 0 0 0.25 0"/>
<feBlend mode="normal" in2="BackgroundImageFix" result="effect1_dropShadow_1534_2"/>
<feBlend mode="normal" in="SourceGraphic" in2="effect1_dropShadow_1534_2" result="shape"/>
</filter>
</defs>
</svg>
